<?xml version="1.0" standalone="no"?>
<!DOCTYPE svg PUBLIC "-//W3C//DTD SVG 20010904//EN"
 "http://www.w3.org/TR/2001/REC-SVG-20010904/DTD/svg10.dtd">
<svg version="1.0" xmlns="http://www.w3.org/2000/svg"
 width="173.174412pt" height="125.000000pt" viewBox="0 0 173.174412 125.000000"
 preserveAspectRatio="xMidYMid meet">
<metadata>
Created by potrace 1.16, written by Peter Selinger 2001-2019
</metadata>
<g transform="translate(-71.825588,153.000000) scale(0.100000,-0.100000)"
fill="#000000" stroke="none">
<path d="M1095 1458 c-38 -41 -81 -101 -98 -138 -34 -69 -34 -63 -25 -305 1
-22 -2 -87 -7 -143 -9 -117 -18 -116 -42 1 -8 39 -24 88 -34 110 -24 45 -150
170 -162 158 -15 -15 -10 -135 8 -179 20 -49 100 -126 149 -142 51 -17 69 -63
76 -193 5 -99 7 -111 29 -128 28 -23 45 -23 169 -2 152 26 339 21 492 -11 69
-15 199 -40 289 -57 97 -17 220 -48 300 -75 175 -58 176 -59 111 -28 -95 45
-219 81 -420 124 -107 23 -238 51 -290 62 -130 29 -352 31 -502 4 -152 -27
-158 -23 -158 87 0 131 33 199 104 218 145 36 199 66 251 133 30 39 79 162 70
176 -3 5 -51 -13 -107 -38 -123 -57 -195 -121 -235 -209 -14 -32 -32 -65 -39
-74 -8 -9 -23 -33 -35 -55 -20 -39 -20 -39 -14 76 6 112 20 194 36 216 5 5 6
19 3 30 -3 10 7 52 21 93 14 41 25 79 25 85 -1 21 -34 -49 -56 -119 -22 -70
-22 -70 -23 17 -1 122 21 177 109 270 69 73 69 73 69 -12 1 -137 -24 -204
-107 -292 -20 -21 -33 -40 -30 -43 11 -12 94 83 123 141 28 55 30 68 33 187 2
80 0 127 -6 127 -6 0 -40 -33 -77 -72z m-216 -493 c11 -22 22 -56 26 -75 7
-35 7 -35 -16 -5 -12 17 -27 35 -32 40 -13 14 12 -34 35 -67 22 -32 19 -34
-25 -12 -80 41 -137 129 -137 215 0 64 9 64 72 2 32 -32 67 -76 77 -98z m476
68 c-14 -31 -37 -72 -50 -89 -28 -37 -130 -89 -190 -98 -40 -6 -40 -6 25 55
66 62 49 65 -20 3 -20 -19 -40 -34 -43 -34 -12 0 39 76 77 114 39 39 218 131
224 115 2 -5 -8 -34 -23 -66z"/>
<path d="M920 485 c0 -3 2 -5 5 -5 3 0 5 2 5 5 0 3 -2 5 -5 5 -3 0 -5 -2 -5
-5z"/>
<path d="M940 485 c0 -3 2 -5 5 -5 3 0 5 2 5 5 0 3 -2 5 -5 5 -3 0 -5 -2 -5
-5z"/>
<path d="M2413 293 c4 -3 10 -3 14 0 3 4 0 7 -7 7 -7 0 -10 -3 -7 -7z"/>
<path d="M2440 285 c0 -3 2 -5 5 -5 3 0 5 2 5 5 0 3 -2 5 -5 5 -3 0 -5 -2 -5
-5z"/>
</g>
</svg>
