<?xml version="1.0" standalone="no"?>
<!DOCTYPE svg PUBLIC "-//W3C//DTD SVG 20010904//EN"
 "http://www.w3.org/TR/2001/REC-SVG-20010904/DTD/svg10.dtd">
<svg version="1.0" xmlns="http://www.w3.org/2000/svg"
 width="263.646031pt" height="269.405574pt" viewBox="0 0 263.646031 269.405574"
 preserveAspectRatio="xMidYMid meet">
<metadata>
Created by potrace 1.16, written by Peter Selinger 2001-2019
</metadata>
<g transform="translate(0.021318,269.954320) scale(0.100000,-0.100000)"
fill="#000000" stroke="none">
<path d="M567 2674 c-95 -49 -167 -151 -201 -287 -9 -32 -35 -102 -59 -155
-24 -53 -48 -108 -54 -122 -9 -22 -11 -17 -17 40 -9 83 -20 124 -53 197 -26
58 -26 58 -50 6 -13 -28 -30 -82 -38 -118 -22 -108 -6 -169 92 -350 27 -50 27
-50 35 30 17 168 93 353 179 431 29 27 72 69 95 93 57 61 156 262 128 261 -5
-1 -31 -12 -57 -26z m-1 -98 c-32 -70 -133 -196 -157 -196 -5 0 9 30 32 66 22
36 38 68 36 71 -3 2 -24 -24 -47 -59 -34 -49 -41 -57 -36 -33 11 44 45 109 79
151 33 39 120 98 125 84 2 -5 -13 -43 -32 -84z m-376 -292 c26 -73 33 -160 22
-259 -8 -80 -8 -80 -16 -20 -13 101 -27 130 -20 45 2 -41 7 -91 10 -110 3 -28
-4 -18 -38 50 -40 78 -43 91 -43 165 0 60 6 97 24 148 28 75 29 74 61 -19z"/>
<path d="M469 1910 c-77 -41 -149 -155 -149 -236 0 -12 -7 -37 -15 -57 -8 -19
-15 -63 -17 -97 -3 -70 11 -78 -122 75 -51 59 -80 78 -134 90 -40 8 -45 -12
-5 -21 50 -12 99 -42 137 -84 20 -22 34 -45 31 -50 -3 -4 1 -11 7 -13 7 -3
-20 -6 -60 -6 -43 -1 -87 5 -107 13 -46 20 -45 5 0 -17 24 -12 61 -17 116 -17
79 0 79 0 125 -47 26 -27 57 -70 71 -98 22 -45 24 -47 17 -15 -7 39 -29 86
-43 95 -17 10 -24 96 -12 150 12 53 22 67 101 139 55 50 135 217 103 216 -5
-1 -24 -10 -44 -20z m17 -48 c-31 -88 -57 -125 -120 -172 -15 -12 -14 -5 8 33
33 56 29 75 -4 22 -28 -45 -36 -39 -15 11 23 56 61 102 103 124 20 10 38 19
39 20 1 0 -4 -17 -11 -38z"/>
<path d="M211 1784 c1 -27 5 -62 9 -79 5 -18 6 1 3 45 -7 86 -14 107 -12 34z"/>
<path d="M231 1644 c0 -11 3 -14 6 -6 3 7 2 16 -1 19 -3 4 -6 -2 -5 -13z"/>
<path d="M242 1605 c0 -11 3 -29 8 -40 11 -25 11 1 0 35 -6 20 -8 21 -8 5z"/>
<path d="M162 1544 c10 -10 20 -15 24 -12 3 4 -5 12 -18 18 -22 12 -22 12 -6
-6z"/>
<path d="M260 1530 c0 -7 3 -10 7 -7 3 4 3 10 0 14 -4 3 -7 0 -7 -7z"/>
<path d="M2124 1338 c-23 -43 -29 -65 -28 -118 0 -70 12 -101 80 -195 35 -48
36 -53 31 -117 -6 -85 -40 -159 -145 -306 -80 -113 -80 -113 -85 -65 -13 132
-59 239 -124 291 -34 26 -134 82 -148 82 -11 0 -4 -73 11 -108 23 -56 62 -91
139 -127 83 -37 104 -65 112 -141 5 -44 1 -64 -21 -113 -14 -32 -29 -72 -32
-88 -6 -30 -6 -30 -65 29 -62 63 -151 111 -224 122 -22 3 -101 8 -175 12 -157
7 -147 3 -387 160 -228 149 -247 165 -282 236 -61 124 -64 247 -9 296 16 15
49 35 71 44 47 19 38 24 -12 7 -18 -6 -34 -9 -36 -7 -9 9 62 72 100 89 38 17
175 38 175 27 0 -15 -41 -120 -55 -141 -24 -37 -65 -50 -132 -42 -48 6 -56 4
-45 -7 8 -8 37 -13 77 -13 57 0 67 3 94 29 30 29 64 96 76 153 8 41 -8 46
-103 34 -105 -13 -159 -49 -217 -142 -6 -9 -18 -28 -28 -42 -30 -42 -33 -133
-8 -215 12 -39 26 -74 31 -77 6 -3 10 -11 10 -18 0 -23 -154 141 -204 218 -51
78 -157 185 -183 185 -7 0 -13 5 -13 10 0 6 -4 10 -10 10 -16 0 -11 -26 9 -44
10 -9 38 -27 62 -39 35 -17 57 -42 107 -117 106 -159 208 -249 492 -430 284
-182 307 -193 600 -295 91 -32 187 -69 213 -82 27 -13 51 -22 54 -19 11 10
-172 88 -377 160 -125 45 -125 45 -24 45 185 2 312 -60 405 -196 19 -27 50
-53 87 -73 31 -17 97 -69 146 -115 49 -47 92 -82 95 -79 10 9 -141 147 -224
205 -79 55 -80 56 -77 95 5 57 50 150 86 177 17 13 48 33 70 44 38 20 38 20
160 -10 108 -26 127 -28 179 -19 63 12 176 64 203 93 16 18 16 19 -22 19 -21
0 -70 7 -109 15 -135 30 -247 19 -318 -29 -20 -14 -57 -34 -83 -46 -27 -11
-57 -28 -68 -38 -25 -22 -21 -15 72 121 40 59 88 140 107 180 26 57 43 79 83
109 28 20 62 52 76 71 33 43 60 117 47 130 -13 13 -73 -25 -111 -71 -31 -37
-31 -37 -23 -7 15 54 8 147 -14 196 -21 47 -92 149 -104 149 -3 0 -19 -24 -35
-52z m80 -27 c70 -95 82 -167 49 -304 -17 -72 -17 -72 -24 -27 -3 26 -7 35 -8
20 -2 -25 -2 -25 -12 -1 -5 13 -24 45 -43 70 -43 59 -59 112 -54 170 5 47 34
121 48 121 5 0 24 -22 44 -49z m181 -250 c-18 -53 -44 -86 -95 -123 -47 -35
-50 -25 -16 49 17 36 39 62 73 87 26 19 49 33 50 32 2 -2 -3 -22 -12 -45z
m-591 -214 c65 -35 106 -80 131 -142 16 -40 16 -40 -9 -9 -14 17 -38 39 -53
49 -22 15 -19 9 15 -28 23 -26 42 -48 42 -51 0 -2 -18 4 -40 15 -21 10 -43 19
-49 19 -36 0 -110 105 -111 158 0 28 3 28 74 -11z m683 -239 c115 -21 115 -21
92 -39 -67 -52 -186 -64 -314 -33 -70 16 -76 20 -50 25 17 4 64 8 105 9 51 1
67 4 50 9 -14 5 -61 6 -105 4 -80 -4 -80 -4 -45 13 79 38 122 40 267 12z"/>
<path d="M890 1255 c0 -3 2 -5 5 -5 3 0 5 2 5 5 0 3 -2 5 -5 5 -3 0 -5 -2 -5
-5z"/>
<path d="M663 891 c12 -22 23 -38 25 -37 5 6 -31 76 -39 76 -4 0 2 -18 14 -39z"/>
<path d="M710 805 c0 -3 2 -5 5 -5 3 0 5 2 5 5 0 3 -2 5 -5 5 -3 0 -5 -2 -5
-5z"/>
<path d="M735 760 c68 -137 213 -235 375 -255 31 -4 20 1 -32 15 -144 36 -225
89 -295 189 -58 83 -70 95 -48 51z"/>
<path d="M1238 493 c7 -3 16 -2 19 1 4 3 -2 6 -13 5 -11 0 -14 -3 -6 -6z"/>
</g>
</svg>
