<?xml version="1.0" encoding="UTF-8"?>
<svg version="1.1" xmlns="http://www.w3.org/2000/svg"
 width="800" height="604" viewBox="0 0 240 181"
 preserveAspectRatio="xMidYMid meet">
<title>One Line Portrait</title>
<desc>Minimalist one-line portrait art with transparent background</desc>
<g transform="translate(0,181) scale(0.1,-0.1)"
fill="#1a1a1a" stroke="none">
<path d="M936 1560 c-27 -11 -69 -39 -93 -62 -62 -61 -82 -122 -94 -291 -10
-137 -6 -190 13 -214 5 -7 26 -61 47 -122 21 -60 46 -122 56 -138 75 -112 95
-215 56 -279 -26 -43 -89 -104 -106 -104 -9 0 -57 42 -108 94 -82 84 -99 96
-150 111 -120 35 -208 -19 -307 -185 -22 -36 -49 -91 -61 -122 -30 -79 -21
-88 80 -88 150 0 314 41 467 118 l72 35 44 -22 c91 -44 165 -23 313 89 245
187 379 170 491 -60 91 -189 198 -253 418 -251 94 0 254 33 309 63 35 19 10
18 -45 -2 -71 -25 -214 -50 -284 -50 -116 0 -233 42 -298 107 -21 21 -57 79
-82 133 -72 150 -133 199 -249 200 -78 0 -128 -24 -269 -128 -129 -94 -195
-122 -253 -104 -21 6 -47 18 -57 25 -18 13 -16 16 27 56 84 78 110 177 67 261
-11 22 -20 46 -20 54 0 8 -6 19 -14 23 -21 12 -61 99 -90 193 -24 80 -49 270
-39 296 2 7 18 18 34 24 23 10 35 10 59 0 47 -19 54 -42 52 -168 -2 -93 0
-113 13 -118 20 -8 19 -23 -2 -46 -10 -11 -12 -18 -4 -18 7 0 20 13 29 30 9
16 20 30 25 30 4 0 7 7 7 16 0 12 -7 14 -30 9 l-30 -7 6 104 c5 71 3 111 -5
126 -9 18 -7 25 14 49 14 15 34 38 45 51 26 30 59 28 130 -8 72 -37 100 -38
138 -5 35 29 42 31 42 9 0 -9 9 -27 20 -41 40 -52 11 -165 -52 -203 -27 -15
-39 -34 -62 -97 -34 -95 -77 -164 -124 -203 -20 -16 -33 -32 -30 -36 4 -3 27
13 51 35 47 43 106 145 128 220 9 31 23 50 50 68 63 42 97 176 56 221 -10 11
-17 37 -18 63 -1 45 -15 112 -19 94 -1 -5 -1 -24 0 -41 1 -24 -7 -38 -35 -62
-43 -39 -73 -40 -140 -7 -69 34 -119 33 -153 -3 -15 -15 -32 -36 -37 -46 -10
-17 -15 -18 -48 -7 -23 8 -54 10 -79 6 l-41 -7 5 63 c10 126 74 217 177 255
25 10 50 21 56 26 16 14 -17 8 -69 -12z m-340 -1039 c44 -26 194 -176 194
-195 0 -13 -164 -84 -251 -110 -134 -39 -327 -53 -344 -26 -8 14 30 105 75
182 100 168 207 217 326 149z"/>
</g>
</svg>
