<?xml version="1.0" standalone="no"?>
<!DOCTYPE svg PUBLIC "-//W3C//DTD SVG 20010904//EN"
 "http://www.w3.org/TR/2001/REC-SVG-20010904/DTD/svg10.dtd">
<svg version="1.0" xmlns="http://www.w3.org/2000/svg"
 width="315.490306pt" height="224.644465pt" viewBox="0 0 315.490306 224.644465"
 preserveAspectRatio="xMidYMid meet">
<metadata>
Created by potrace 1.16, written by Peter Selinger 2001-2019
</metadata>
<g transform="translate(-44.509694,224.751817) scale(0.100000,-0.100000)"
fill="#000000" stroke="none">
<path d="M1392 2225 c-37 -31 -42 -72 -17 -132 19 -44 13 -63 -17 -63 -13 0
-40 -11 -61 -25 -35 -24 -38 -25 -66 -10 -17 8 -39 15 -50 15 -28 0 -195 -152
-216 -196 -37 -79 -23 -156 34 -193 38 -24 31 -73 -13 -101 -47 -29 -61 -81
-27 -100 39 -20 111 34 111 83 0 7 9 18 20 24 16 11 18 10 14 -2 -4 -8 -3 -15
0 -15 4 0 16 21 27 48 11 26 34 71 52 101 31 55 31 55 44 -4 19 -81 35 -103
83 -111 40 -7 40 -7 4 -26 -31 -16 -48 -18 -109 -13 -45 5 -80 3 -92 -4 -25
-13 -44 -82 -33 -120 4 -15 4 -34 0 -42 -15 -27 -40 -168 -40 -227 0 -51 -5
-67 -33 -108 -19 -27 -64 -108 -101 -181 -57 -111 -67 -137 -60 -160 8 -28 8
-28 11 -3 4 28 121 271 163 340 22 34 31 67 40 140 6 52 18 121 26 153 10 37
13 76 8 105 -7 51 -1 51 24 1 22 -42 91 -79 146 -78 41 1 41 1 -1 10 -94 18
-143 62 -143 129 0 32 0 32 75 25 67 -6 80 -4 131 19 34 16 61 23 68 18 6 -5
60 -26 119 -47 59 -20 122 -47 140 -59 50 -34 50 -34 -18 -281 -18 -66 -36
-132 -39 -147 -8 -35 -50 -55 -99 -47 -22 3 -41 2 -46 -5 -19 -23 -41 -90 -35
-108 4 -14 0 -18 -19 -18 -31 0 -77 -36 -77 -59 0 -10 9 -40 21 -65 29 -66 18
-76 -85 -76 -44 0 -99 -5 -121 -10 -47 -10 -95 -59 -95 -95 0 -40 17 -37 24 5
9 60 35 71 169 77 61 3 118 10 125 16 16 13 15 66 -3 97 -18 31 -19 66 -2 77
6 4 90 10 186 13 130 4 175 8 179 18 2 7 16 27 30 44 81 96 320 184 565 207
75 8 77 8 25 10 -189 4 -468 -83 -572 -179 -46 -43 -46 -43 -46 -2 0 199 495
416 1115 487 167 19 425 19 589 0 142 -17 179 -14 64 4 -353 55 -697 32 -1123
-76 -350 -88 -577 -210 -647 -347 -16 -30 -19 -50 -14 -87 5 -36 3 -48 -8 -52
-10 -4 -16 1 -18 15 -2 17 -15 25 -53 34 -62 16 -104 64 -55 64 25 0 34 18 54
115 10 44 34 133 54 199 33 109 35 120 21 144 -22 40 -65 64 -187 106 -107 37
-112 39 -112 66 0 16 5 41 11 57 10 27 10 27 30 -4 22 -35 147 -95 190 -91 14
1 40 -9 60 -25 33 -25 37 -25 57 -11 44 30 11 94 -48 94 -22 0 -50 16 -104 60
-73 61 -73 61 -85 138 -6 42 -16 105 -21 139 -11 64 -5 97 14 90 24 -9 56 12
56 37 0 14 5 28 10 31 7 4 7 12 0 25 -14 25 -13 56 2 80 16 26 1 52 -33 57
-117 16 -114 16 -147 -12z m143 -8 c32 -6 30 -34 -3 -51 -16 -8 -32 -22 -36
-31 -3 -9 -14 -15 -23 -13 -12 2 -19 -4 -21 -18 -2 -12 -11 -29 -21 -38 -17
-16 -19 -15 -35 18 -9 19 -16 52 -16 75 0 63 44 80 155 58z m16 -102 c1 -16
-1 -38 -5 -47 -3 -10 -8 -25 -11 -34 -3 -10 -12 -13 -24 -9 -14 4 -25 -1 -36
-19 -17 -25 -17 -25 -46 -4 -35 26 -36 32 -4 46 13 6 27 23 31 37 3 14 11 24
17 22 6 -2 22 10 36 25 27 32 38 28 42 -17z m-131 -125 c11 -11 20 -24 20 -30
0 -5 6 -10 13 -10 33 0 22 -110 -24 -240 -23 -63 -43 -125 -46 -137 -4 -19
-10 -21 -37 -16 -66 12 -80 25 -103 93 -28 83 -28 78 5 92 15 7 41 22 57 34
17 12 39 24 51 28 23 7 64 84 64 120 0 31 -36 76 -61 76 -11 0 -30 -5 -42 -11
-21 -10 -21 -10 -3 5 28 22 82 20 106 -4z m-180 -15 c19 -10 28 -11 40 -2 8 7
-3 -9 -25 -35 -46 -56 -60 -64 -20 -12 16 20 22 35 15 32 -8 -2 -29 -27 -47
-54 -18 -27 -45 -65 -60 -85 -16 -19 -44 -70 -63 -112 -19 -42 -40 -76 -45
-77 -23 0 -55 32 -64 65 -20 73 12 134 122 234 72 65 98 73 147 46z m148 -7
c18 -18 14 -79 -7 -114 -12 -20 -48 -47 -95 -73 -70 -39 -78 -47 -118 -118
-24 -42 -59 -93 -78 -113 -19 -19 -39 -48 -45 -64 -6 -17 -23 -33 -44 -42 -30
-13 -32 -13 -20 2 10 13 10 17 -2 24 -11 8 -6 16 26 42 21 18 45 32 52 30 18
-4 16 17 -2 24 -22 9 -18 33 8 45 30 14 59 58 101 156 27 63 49 96 98 147 65
67 99 81 126 54z m113 -235 c11 -47 17 -55 75 -98 59 -43 62 -48 52 -70 -6
-14 -16 -25 -22 -25 -7 0 -43 15 -82 34 -95 45 -102 62 -69 167 14 44 26 88
27 97 0 9 3 1 5 -18 1 -19 8 -58 14 -87z m-367 10 c-19 -43 -44 -87 -55 -98
-23 -22 -26 -32 26 90 14 34 51 85 61 85 2 0 -12 -35 -32 -77z m516 -187 c0
-3 -5 -8 -12 -12 -7 -4 -8 -3 -4 4 7 12 16 16 16 8z m84 -2 c9 -3 16 -10 16
-16 0 -5 -4 -7 -9 -4 -5 3 -11 -3 -14 -15 -5 -19 -7 -20 -36 -4 -40 20 -41 45
-2 45 16 0 36 -3 45 -6z m-204 -634 c0 -5 -16 -10 -35 -10 -19 0 -35 5 -35 10
0 6 16 10 35 10 19 0 35 -4 35 -10z m-18 -33 c20 9 28 7 51 -13 15 -13 43 -26
62 -30 19 -3 35 -10 35 -14 0 -13 -54 -19 -100 -10 -25 5 -62 6 -82 3 -44 -6
-55 8 -39 50 9 24 13 26 30 15 14 -9 26 -9 43 -1z"/>
<path d="M3590 1355 c0 -3 2 -5 5 -5 3 0 5 2 5 5 0 3 -2 5 -5 5 -3 0 -5 -2 -5
-5z"/>
<path d="M1323 1326 c-18 -23 -66 -154 -98 -269 -9 -31 -29 -71 -43 -89 -15
-17 -65 -104 -112 -192 -60 -114 -91 -162 -105 -165 -11 -2 -28 -12 -37 -23
-19 -22 -45 -18 -54 7 -9 23 1 28 28 15 23 -11 23 -11 -1 10 -24 21 -24 21
-58 -12 -56 -54 -54 -69 15 -138 61 -60 61 -60 -54 -60 -128 0 -169 -13 -180
-55 -3 -14 -1 -39 5 -56 21 -60 14 -99 -21 -128 -61 -50 -169 -163 -163 -170
4 -3 28 18 54 46 44 51 107 103 122 103 4 0 -3 -19 -16 -42 -49 -85 -17 -95
44 -13 23 30 65 73 94 95 58 43 177 101 246 120 46 12 101 60 101 88 0 10 -12
3 -32 -20 -25 -27 -58 -45 -131 -73 -117 -44 -199 -97 -268 -173 -44 -48 -49
-51 -30 -20 12 21 20 42 17 47 -4 5 1 25 10 44 15 32 15 38 0 83 -20 60 -20
60 4 84 17 17 33 20 118 20 144 0 233 10 239 28 4 8 -6 24 -25 39 -18 14 -36
40 -42 61 -16 58 -13 72 14 72 31 0 45 20 135 200 41 80 80 149 87 153 21 12
44 61 66 140 10 38 33 106 49 149 27 70 34 79 53 74 11 -2 49 -8 84 -12 53 -6
62 -9 57 -23 -4 -9 -15 -62 -25 -117 -10 -56 -23 -111 -29 -122 -14 -26 -14
-82 -1 -82 5 0 7 7 4 15 -3 8 3 38 14 67 11 29 23 73 26 98 17 111 27 139 59
159 26 16 28 21 15 26 -9 4 -25 2 -35 -3 -25 -13 -179 9 -175 26 3 18 -4 15
-25 -12z m-393 -818 c6 -22 24 -47 43 -62 32 -26 32 -26 -3 -26 -42 0 -43 1
-104 68 -45 48 -48 54 -37 76 13 23 13 23 52 2 30 -16 42 -30 49 -58z"/>
<path d="M1573 773 c4 -3 10 -3 14 0 3 4 0 7 -7 7 -7 0 -10 -3 -7 -7z"/>
<path d="M1424 678 c-19 -23 -19 -23 4 -4 21 18 27 26 19 26 -2 0 -12 -10 -23
-22z"/>
<path d="M1394 638 c-4 -7 -3 -8 4 -4 12 7 16 16 8 16 -3 0 -8 -5 -12 -12z"/>
<path d="M1255 570 c-3 -6 1 -7 9 -4 18 7 21 14 7 14 -6 0 -13 -4 -16 -10z"/>
<path d="M1230 555 c0 -3 2 -5 5 -5 3 0 5 2 5 5 0 3 -2 5 -5 5 -3 0 -5 -2 -5
-5z"/>
<path d="M1119 463 c-13 -16 -12 -17 4 -4 16 13 21 21 13 21 -2 0 -10 -8 -17
-17z"/>
<path d="M1100 435 c0 -3 2 -5 5 -5 3 0 5 2 5 5 0 3 -2 5 -5 5 -3 0 -5 -2 -5
-5z"/>
</g>
</svg>
