<svg viewBox="0 0 64 64" xmlns="http://www.w3.org/2000/svg">
  <!-- White background, no border -->
  <rect x="0" y="0" width="64" height="64" fill="#ffffff"/>

  <g transform="translate(32,33)">

    <!-- Central spine -->
    <path d="M 0,-26 C 1,-15 -1,-6 0,4 C -1,12 1,20 0,26"
          fill="none" stroke="#000000" stroke-width="3.6" stroke-linecap="round"/>

    <!-- Left barbs -->
    <path d="M 0,-23 C -6,-21 -11,-19 -15,-16" fill="none" stroke="#000000" stroke-width="4.6" stroke-linecap="round"/>
    <path d="M 0.3,-17 C -8,-14.5 -15,-12 -19,-8" fill="none" stroke="#000000" stroke-width="5.2" stroke-linecap="round"/>
    <path d="M 0.5,-10 C -9,-8 -16,-4 -21,2" fill="none" stroke="#000000" stroke-width="5.6" stroke-linecap="round"/>
    <path d="M 0.5,-2 C -9,-0.5 -17,3 -20,8" fill="none" stroke="#000000" stroke-width="5.2" stroke-linecap="round"/>
    <path d="M 0.3,7 C -7,8.5 -13,11.5 -16,16" fill="none" stroke="#000000" stroke-width="4.4" stroke-linecap="round"/>
    <path d="M 0,15 C -4,16.5 -8,19 -10,22" fill="none" stroke="#000000" stroke-width="3.2" stroke-linecap="round"/>

    <!-- Right barbs -->
    <path d="M 0,-23 C 6,-21 11,-18.5 15,-15.5" fill="none" stroke="#000000" stroke-width="4.6" stroke-linecap="round"/>
    <path d="M 0.3,-17 C 8.5,-14 15.5,-11 20,-6.5" fill="none" stroke="#000000" stroke-width="5.2" stroke-linecap="round"/>
    <path d="M 0.5,-10 C 9.5,-7.5 17,-3.5 22,3" fill="none" stroke="#000000" stroke-width="5.6" stroke-linecap="round"/>
    <path d="M 0.5,-2 C 9.5,0 17.5,4 21,9" fill="none" stroke="#000000" stroke-width="5.2" stroke-linecap="round"/>
    <path d="M 0.3,7 C 7.5,9 13.5,12.5 17,17" fill="none" stroke="#000000" stroke-width="4.4" stroke-linecap="round"/>
    <path d="M 0,15 C 4.5,17 8.5,19.5 11,23" fill="none" stroke="#000000" stroke-width="3.2" stroke-linecap="round"/>

    <!-- Feather tip -->
    <path d="M 0,-26 C -3,-29.5 -1,-33 1,-31.5 C 4,-29.5 3.5,-28 0,-26 Z" fill="#000000"/>
  </g>
</svg>
