<svg width="752" height="901" viewBox="0 0 752 901" fill="none" xmlns="http://www.w3.org/2000/svg">
<g clip-path="url(#clip0_53_5)">
<path d="M214.444 1.64313C201.644 6.17646 193.911 17.9098 190.444 37.6431C189.644 42.4431 188.577 46.3098 188.177 46.1765C184.044 45.7765 181.244 50.4431 181.244 57.5098C181.244 64.7098 185.111 80.3098 187.111 81.3765C189.511 82.7098 191.111 99.9098 189.911 112.176C189.111 120.043 188.311 122.31 185.244 125.376C181.511 129.11 181.377 129.11 163.644 129.11C120.577 129.11 82.3108 133.51 62.3108 140.576C30.5774 151.91 11.7774 172.176 3.77744 203.776C0.177439 218.443 -1.15589 260.576 1.24411 286.71C5.11077 330.043 10.4441 359.51 32.7108 463.11C37.5108 485.11 42.8441 509.643 44.5774 517.776C47.6441 532.31 47.6441 533.643 48.3108 637.11C49.1108 762.043 50.5774 784.31 60.0441 818.043C72.0441 860.843 94.1774 881.243 106.577 860.843C110.577 854.31 112.577 839.51 112.311 817.776C112.044 779.91 106.044 746.176 84.3108 661.11C76.5774 630.71 66.7108 591.376 62.4441 573.776C54.5774 541.776 54.5774 541.776 54.5774 509.11C54.5774 460.576 60.3108 277.643 62.4441 255.11C64.0441 239.243 65.6441 235.776 71.3774 235.776C74.0441 235.776 78.3108 237.376 81.9108 239.643C90.3108 244.976 99.5108 246.976 110.977 245.91C150.977 242.176 215.911 195.91 241.377 152.976C245.244 146.31 248.844 140.71 249.244 140.443C250.977 139.376 287.111 152.443 300.577 159.11C338.977 178.043 362.311 202.31 373.244 234.443C376.844 245.243 378.311 269.91 376.044 282.976C368.311 327.11 339.777 369.91 288.844 413.643C276.044 424.576 245.111 447.776 226.977 459.91C213.244 469.11 213.244 469.11 196.311 465.51C181.777 462.443 175.777 461.91 156.577 461.91C136.577 461.776 132.844 462.176 124.311 464.843C110.977 468.976 103.911 475.643 103.911 483.776C103.911 491.643 108.444 497.243 119.377 502.576C130.444 508.043 142.444 508.443 156.311 503.91C166.177 500.576 187.244 490.176 201.777 481.376C206.711 478.31 211.377 475.776 212.177 475.776C216.044 475.776 242.711 487.643 255.911 495.11C269.511 502.976 280.044 510.043 333.244 546.976C359.911 565.376 385.244 580.843 406.577 591.643C426.977 601.91 456.444 614.443 460.577 614.443C461.777 614.443 462.977 615.243 463.377 616.176C464.044 617.91 446.311 660.31 430.577 694.443C419.377 718.976 397.644 762.176 385.911 783.11C354.977 838.976 346.444 856.576 344.577 869.51C342.044 886.043 353.111 889.91 370.177 878.443C394.577 862.31 439.244 811.376 475.244 759.11C480.311 751.776 486.844 742.176 489.911 737.776C502.977 718.71 530.577 672.976 543.911 648.176C552.577 632.176 552.577 632.176 589.244 631.376C623.777 630.71 646.844 628.843 673.244 624.576C679.511 623.51 684.711 622.843 684.844 622.976C684.977 622.976 687.244 638.443 689.911 657.11C705.244 764.976 716.311 815.776 733.644 858.443C741.244 877.51 745.777 885.11 749.377 885.11C750.844 885.11 751.911 884.843 751.911 884.443C751.911 884.043 748.977 877.91 745.377 870.71C741.777 863.643 736.844 851.11 734.177 843.11C724.177 811.91 706.311 725.91 697.244 665.776C691.244 625.643 690.977 622.176 692.444 621.776C693.244 621.51 698.711 620.043 704.577 618.443C728.577 612.043 729.777 604.043 710.844 578.443C706.844 572.976 698.711 563.776 692.977 558.176C680.977 546.443 682.844 555.243 674.577 473.776C663.511 365.376 652.977 319.376 626.044 261.91C620.177 249.376 620.177 249.376 629.777 248.843C636.977 248.576 640.311 247.643 643.511 245.376C649.244 241.376 658.044 223.51 660.711 210.576C661.777 205.243 663.511 199.11 664.577 196.976C666.977 192.443 665.244 176.843 662.044 173.243C660.844 171.91 659.911 169.776 659.911 168.31C659.911 163.643 652.044 144.71 648.177 139.91C646.044 137.243 641.377 133.376 637.777 131.376C632.177 128.176 630.044 127.776 622.444 128.043C611.244 128.576 604.311 132.843 598.577 142.843C590.844 156.176 587.911 172.443 589.244 193.776C589.777 201.11 590.044 207.243 589.911 207.51C589.777 207.643 588.044 207.243 586.311 206.576C575.777 202.576 567.911 224.71 567.911 258.31C567.911 303.243 558.844 348.576 535.111 423.376C522.311 463.643 495.244 538.443 474.444 591.376C466.444 611.643 466.444 611.643 454.844 607.51C431.111 599.243 399.644 584.043 374.844 568.843C361.511 560.843 328.311 538.043 305.111 521.11C267.511 493.776 248.177 482.043 227.644 474.443C223.377 472.843 219.911 471.243 219.911 470.71C219.911 470.176 222.711 468.043 226.311 465.776C247.244 452.71 289.111 420.443 309.911 401.376C349.244 365.11 373.777 326.176 381.911 286.976C384.977 272.176 384.711 250.043 381.377 236.443C370.177 192.71 330.177 158.31 269.244 140.31C260.044 137.643 252.311 135.243 252.044 134.976C251.777 134.71 253.511 129.376 255.777 123.11C260.844 108.976 266.977 87.7765 266.711 85.1098C266.044 78.7098 266.977 62.8431 268.044 60.8431C268.977 59.2431 268.711 56.4431 267.377 52.0431C266.311 48.5765 264.177 41.5098 262.711 36.4431C259.644 25.7765 251.111 12.0431 244.711 7.10979C235.777 0.309794 224.044 -1.82354 214.444 1.64313ZM233.777 5.24313C245.511 8.44313 258.311 28.1765 261.911 48.7098C266.177 72.1765 262.844 94.3098 251.911 115.776C248.177 123.11 237.244 129.51 230.444 128.443C226.844 127.776 225.377 128.176 224.844 129.643C224.177 131.243 226.177 132.31 233.511 134.71C238.711 136.31 243.111 138.443 243.511 139.243C243.777 140.043 241.911 144.31 239.377 148.576C212.311 194.843 145.511 241.11 105.777 241.11C95.1108 241.11 89.9108 239.643 81.3774 234.176C71.5108 227.91 65.1108 229.643 59.7774 239.776C55.1108 248.71 54.4441 257.643 53.2441 317.776C52.5774 350.71 51.3774 398.176 50.5774 423.11C49.9108 448.043 49.2441 477.643 49.2441 488.976C49.2441 500.31 48.8441 509.11 48.3108 508.576C46.3108 506.576 19.7774 380.043 14.0441 345.11C6.71077 300.443 3.64411 254.176 6.31077 227.776C10.5774 186.976 22.9774 166.043 50.5774 152.71C72.4441 142.176 94.1774 138.176 142.044 135.776C174.444 134.31 180.444 133.51 185.644 130.843C190.311 128.443 194.444 119.643 194.577 112.043C194.577 105.643 195.244 105.243 198.577 109.376C202.711 114.576 202.844 111.243 198.711 102.31C193.911 92.0431 192.444 77.2431 194.711 62.3098C195.644 56.8431 196.444 47.6431 196.577 41.7765C196.844 29.9098 199.911 20.4431 205.777 12.7098C212.044 4.44313 221.644 1.90979 233.777 5.24313ZM189.244 57.6431C189.244 59.5098 188.711 61.3765 187.911 61.7765C187.111 62.3098 186.577 60.8431 186.577 58.5765C186.577 56.3098 187.244 54.4431 187.911 54.4431C188.711 54.4431 189.244 55.9098 189.244 57.6431ZM249.244 128.976C246.977 133.376 246.044 134.31 244.177 133.376C242.977 132.71 240.977 131.91 239.911 131.51C238.577 131.11 239.644 130.043 242.844 128.576C245.511 127.243 248.444 125.376 249.377 124.31C252.177 120.843 252.177 123.376 249.244 128.976ZM634.444 133.776C644.044 138.71 655.111 158.31 651.911 164.576C650.711 166.843 650.711 168.176 652.311 171.243C653.377 173.376 654.711 178.443 655.111 182.443C655.644 186.443 656.711 192.576 657.511 195.91C660.311 207.91 651.511 233.776 641.644 242.576C635.777 247.643 627.377 247.91 616.844 243.11C609.777 239.91 609.111 239.11 603.377 227.91C593.644 208.976 591.111 190.443 595.111 167.643C598.177 150.843 605.111 138.176 613.644 133.91C618.977 131.243 629.511 131.243 634.444 133.776ZM589.377 213.243C591.511 214.71 593.244 216.71 593.244 217.51C593.244 221.376 601.377 235.643 605.644 239.243C610.844 243.643 617.911 256.843 627.911 281.243C642.844 317.51 651.777 353.776 659.777 409.776C664.044 439.643 675.777 541.11 674.977 541.11C674.844 541.11 669.644 537.776 663.644 533.51C638.844 516.71 620.977 511.11 609.511 516.976C599.377 522.176 593.244 532.31 572.844 577.776C557.777 611.376 552.044 623.376 550.177 624.843C548.177 626.31 530.044 624.71 509.244 621.11C493.511 618.443 473.644 613.91 472.577 612.843C472.177 612.576 475.244 603.91 479.377 593.643C525.377 479.376 557.644 378.843 568.444 316.976C572.444 294.043 574.177 277.643 575.911 246.443C577.111 223.376 578.311 215.91 581.377 212.31C583.377 209.776 584.844 209.91 589.377 213.243ZM184.177 468.976C208.311 473.11 207.911 472.576 191.377 482.31C167.511 496.31 146.311 503.643 135.911 501.776C129.244 500.576 116.311 493.376 112.444 488.843C105.511 480.576 110.844 472.71 126.177 468.443C136.177 465.643 166.311 466.043 184.177 468.976ZM631.911 521.51C641.511 524.976 654.977 532.71 667.511 542.176C673.777 546.843 676.044 549.51 676.444 552.443C676.844 554.576 678.711 570.176 680.711 586.843C683.511 610.443 684.044 617.51 682.711 618.31C680.577 619.643 650.577 623.376 628.711 625.11C608.711 626.71 555.511 626.843 556.177 625.376C556.444 624.843 563.111 611.51 571.111 595.776C579.111 580.043 589.511 558.71 594.177 548.443C598.844 538.176 604.311 527.776 606.177 525.376C612.044 517.643 618.311 516.71 631.911 521.51ZM696.444 568.576C708.444 582.176 715.244 592.176 718.311 600.443C720.444 606.31 720.444 606.576 717.777 609.11C714.311 612.71 692.177 618.31 690.711 616.043C689.777 614.443 683.911 566.176 683.911 560.043C683.911 558.443 684.444 557.11 685.111 557.11C685.777 557.11 690.977 562.31 696.444 568.576ZM68.7108 617.91C102.444 748.843 107.111 772.843 107.111 818.443C107.111 853.11 104.311 864.043 95.2441 864.043C83.1108 864.043 70.0441 840.043 64.0441 807.11C60.7108 788.31 57.6441 760.843 55.9108 733.776C54.3108 708.976 52.4441 561.376 53.7774 562.576C54.3108 563.11 60.9774 587.91 68.7108 617.91ZM484.977 621.643C501.644 625.91 518.977 628.843 533.644 629.91C540.044 630.443 545.644 631.376 546.044 632.043C547.244 633.776 523.244 677.376 504.177 708.443C450.044 796.043 382.577 874.043 356.311 879.243C350.177 880.443 348.844 876.443 351.244 864.71C353.911 851.643 361.111 836.31 380.977 800.71C413.377 742.576 436.844 694.843 463.244 633.376C466.844 625.243 470.311 618.443 470.977 618.443C471.511 618.443 477.911 619.91 484.977 621.643Z" fill="black"/>
<path d="M212.311 50.0431C204.177 50.7097 203.244 52.7097 208.711 56.9764C210.844 58.7097 214.177 59.7764 217.377 59.7764C223.644 59.7764 224.311 61.3764 224.577 78.1764C224.711 91.2431 225.911 94.3097 229.644 91.5097C232.844 88.9764 233.244 64.8431 230.044 61.7764C228.844 60.5764 227.911 58.9764 227.911 58.1764C227.911 55.9097 222.444 49.1097 220.844 49.3764C219.911 49.5097 216.044 49.7764 212.311 50.0431Z" fill="black"/>
<path d="M240.044 52.1764C234.977 54.7097 235.244 56.9764 240.844 59.2431C244.711 60.8431 247.377 61.1097 251.644 60.3097C258.711 58.8431 259.644 56.5764 253.244 56.5764C249.911 56.4431 248.711 55.9097 248.977 54.5764C249.377 52.7097 246.977 50.4431 244.577 50.4431C243.911 50.4431 241.777 51.2431 240.044 52.1764Z" fill="black"/>
<path d="M610.711 176.976C604.711 178.043 604.044 180.443 609.111 182.976C613.911 185.51 618.177 185.776 618.977 183.376C619.377 182.176 620.311 182.443 622.177 184.176C624.977 186.576 627.911 197.91 627.911 205.776C627.911 211.11 632.711 216.176 634.577 213.11C637.777 208.043 634.844 190.843 629.777 185.51C627.911 183.51 625.377 180.443 624.311 178.71C622.177 175.643 619.644 175.376 610.711 176.976Z" fill="black"/>
<path d="M640.844 180.71C639.377 182.043 639.777 183.376 641.911 184.31C644.311 185.11 651.911 182.71 651.911 180.976C651.911 179.643 642.177 179.376 640.844 180.71Z" fill="black"/>
<path d="M628.311 222.443C623.244 224.443 624.844 226.176 632.577 227.11C642.044 228.31 644.577 227.51 642.311 223.776C640.444 220.843 633.777 220.31 628.311 222.443Z" fill="black"/>
</g>
<defs>
<clipPath id="clip0_53_5">
<rect width="751.911" height="1030.56" fill="white"/>
</clipPath>
</defs>
</svg>
