<?xml version="1.0" standalone="no"?>
<!DOCTYPE svg PUBLIC "-//W3C//DTD SVG 20010904//EN"
 "http://www.w3.org/TR/2001/REC-SVG-20010904/DTD/svg10.dtd">
<svg version="1.0" xmlns="http://www.w3.org/2000/svg"
 width="156.422319pt" height="206.049972pt" viewBox="0 0 156.422319 206.049972"
 preserveAspectRatio="xMidYMid meet">
<metadata>
Created by potrace 1.16, written by Peter Selinger 2001-2019
</metadata>
<g transform="translate(-18.000000,206.000000) scale(0.100000,-0.100000)"
fill="#000000" stroke="none">
<path d="M1200 1984 c-52 -55 -83 -99 -108 -153 -33 -70 -36 -85 -40 -186 -2
-64 1 -129 8 -155 6 -25 14 -54 16 -66 4 -14 -8 -37 -38 -75 -85 -104 -150
-205 -224 -348 -8 -14 -14 -32 -14 -38 0 -7 -5 -13 -10 -13 -7 0 -7 10 -3 28
12 42 8 190 -6 252 -8 30 -27 81 -44 113 -32 62 -141 187 -162 187 -22 0 -45
-48 -62 -130 -15 -74 -15 -87 0 -161 25 -121 68 -200 160 -292 81 -82 82 -85
57 -142 -5 -11 -29 -78 -54 -150 -118 -342 -122 -351 -124 -262 -2 84 -40 210
-83 282 -40 67 -148 171 -212 205 -66 35 -77 22 -77 -90 0 -123 42 -238 118
-321 44 -50 134 -120 191 -150 41 -21 42 -24 36 -57 -7 -35 -49 -120 -103
-207 -30 -48 -28 -71 4 -44 37 31 159 289 233 496 18 51 39 97 45 102 8 7 33
3 77 -10 115 -37 268 -14 382 58 92 57 207 182 207 223 0 26 -23 32 -140 37
-129 6 -198 -10 -302 -69 -40 -23 -104 -73 -142 -110 -63 -63 -92 -86 -69 -56
5 7 24 56 42 107 36 104 110 263 166 356 44 72 156 222 171 228 6 3 37 -4 70
-15 82 -28 255 -22 329 12 82 38 161 96 210 157 46 56 46 58 27 73 -11 9 -55
22 -99 28 -104 16 -215 -3 -311 -55 -69 -36 -131 -79 -144 -97 -5 -7 -8 -7 -8
-1 0 6 16 33 36 60 53 72 89 158 109 254 15 73 15 95 5 165 -12 77 -23 106
-40 106 -4 0 -40 -34 -80 -76z m96 -57 c12 -118 -36 -275 -121 -391 -43 -59
-44 -46 -9 86 25 90 26 134 4 98 -15 -23 -50 -144 -57 -195 -3 -25 -9 -48 -14
-50 -12 -8 -22 98 -17 193 6 113 48 209 133 300 67 73 69 72 81 -41z m399
-335 c30 -8 30 -8 -24 -65 -62 -65 -134 -115 -206 -142 -64 -25 -251 -27 -304
-4 -37 16 -37 16 243 103 40 12 68 45 30 34 -11 -3 -72 -21 -136 -40 -129 -38
-133 -33 -29 35 70 46 129 71 202 87 47 10 174 5 224 -8z m-1049 -162 c77 -82
131 -255 118 -377 -3 -35 -10 -63 -15 -63 -5 0 -9 7 -9 16 0 37 -73 244 -86
244 -18 0 -18 -10 5 -78 10 -31 28 -91 40 -132 12 -41 26 -83 32 -92 19 -35
-10 -17 -61 38 -88 97 -130 205 -130 334 0 42 7 100 16 129 15 53 15 53 36 34
12 -10 36 -34 54 -53z m131 -507 c-4 -3 -7 0 -7 7 0 7 3 10 7 7 3 -4 3 -10 0
-14z m551 -47 c16 -10 -9 -45 -82 -116 -127 -124 -287 -174 -443 -138 -29 7
-53 15 -53 18 0 6 103 48 215 87 73 26 93 38 82 49 -7 8 -224 -62 -245 -79 -7
-5 -15 -7 -18 -5 -10 11 125 116 182 143 94 44 141 54 250 51 55 -1 106 -6
112 -10z m-1042 -50 c33 -24 78 -63 101 -87 68 -71 133 -225 133 -316 0 -38 0
-38 -36 21 -19 33 -48 85 -64 116 -29 58 -56 88 -67 76 -4 -4 -2 -15 3 -24 6
-9 28 -48 49 -87 21 -38 48 -86 60 -105 28 -45 37 -70 25 -70 -17 0 -149 105
-179 144 -68 85 -117 238 -105 327 4 27 10 49 14 49 4 0 34 -20 66 -44z"/>
</g>
</svg>
