<?xml version="1.0" encoding="UTF-8"?>
<svg version="1.1" xmlns="http://www.w3.org/2000/svg"
 width="800" height="800" viewBox="0 0 292 292"
 preserveAspectRatio="xMidYMid meet">
<title>One Line Art - Person with Laptop</title>
<desc>Minimalist one-line drawing with transparent background</desc>
<g transform="translate(0,292) scale(0.1,-0.1)"
fill="#1a1a1a" stroke="none">
<path d="M1529 2703 c-5 -16 -12 -35 -15 -42 -18 -51 -22 -217 -9 -361 8 -85
15 -205 15 -266 0 -223 -70 -383 -206 -470 -51 -32 -58 -43 -129 -182 l-75
-149 -67 -1 c-70 -1 -116 15 -127 43 -13 35 -5 119 21 212 35 133 37 279 4
371 -25 70 -22 116 7 109 26 -6 70 20 86 51 8 15 28 40 46 55 66 59 115 221
96 321 -15 80 -111 144 -202 133 -52 -5 -109 -46 -133 -95 -9 -17 -26 -33 -39
-37 -51 -13 -61 -114 -18 -180 21 -32 20 -50 -4 -100 -15 -32 -34 -49 -81 -76
-99 -55 -155 -136 -195 -279 -14 -49 -18 -101 -18 -210 0 -126 3 -160 27 -255
25 -99 27 -121 22 -215 -6 -95 0 -160 20 -212 8 -21 -40 -29 -220 -37 -84 -4
-140 -10 -139 -16 2 -19 79 -24 226 -14 l147 10 48 -50 c80 -82 155 -90 320
-31 284 102 309 110 361 110 69 0 89 -12 112 -65 10 -24 28 -48 39 -54 11 -6
59 -15 108 -20 212 -22 338 -126 408 -335 25 -76 35 -94 65 -114 30 -20 43
-23 87 -18 31 4 54 2 58 -4 13 -21 92 -53 164 -66 131 -23 343 -14 349 16 2
13 -23 15 -180 15 -168 0 -188 2 -240 23 -72 29 -91 54 -114 144 -44 183 -124
381 -195 485 -47 69 -134 158 -188 192 -25 16 -72 37 -103 46 -32 9 -58 21
-58 27 0 7 36 82 80 169 81 160 90 186 68 194 -7 2 -107 11 -223 21 -115 9
-212 18 -215 21 -3 2 9 14 25 26 57 40 116 111 150 181 65 132 78 277 49 566
-16 163 -12 275 11 369 8 30 12 58 9 63 -10 16 -25 8 -35 -19z m-459 -228 c48
-25 74 -72 75 -135 0 -49 -4 -58 -32 -86 -20 -20 -38 -52 -48 -88 -10 -35 -22
-56 -31 -56 -8 0 -18 -8 -22 -19 -4 -10 -27 -34 -52 -53 -25 -18 -53 -50 -63
-70 -18 -37 -18 -38 7 -112 37 -107 36 -216 -4 -369 -42 -162 -40 -197 16
-257 15 -16 26 -44 30 -73 7 -47 6 -47 -22 -47 -16 0 -59 -3 -95 -6 -65 -7
-67 -6 -102 27 -30 28 -41 51 -62 123 -27 94 -55 283 -55 369 0 70 -9 99 -29
95 -9 -2 -15 -12 -14 -23 2 -11 7 -76 13 -145 19 -223 66 -396 120 -445 11
-10 20 -27 20 -37 0 -23 26 -33 140 -54 50 -9 90 -21 90 -26 0 -16 -141 -75
-248 -104 -119 -32 -115 -34 -131 60 -7 41 -7 83 -1 130 11 75 10 89 -27 251
-44 196 -31 398 36 539 32 66 71 106 156 160 75 47 96 93 105 230 9 124 24
171 70 210 25 20 42 26 81 26 28 0 63 -7 79 -15z m-260 -165 c0 -22 -4 -40
-10 -40 -5 0 -10 18 -10 40 0 22 5 40 10 40 6 0 10 -18 10 -40z m698 -847
c164 -13 212 -20 212 -30 0 -8 -36 -85 -81 -172 l-80 -158 -92 -12 c-51 -6
-163 -23 -250 -38 -87 -14 -160 -23 -163 -21 -7 8 218 448 230 448 6 0 107 -7
224 -17z m-432 -274 c3 -5 -4 -25 -16 -44 -17 -27 -28 -35 -51 -35 -31 0 -34
4 -42 55 l-6 31 55 1 c29 1 56 -3 60 -8z m-56 -126 c-1 -29 -17 -33 -93 -21
-42 7 -77 16 -77 20 0 5 38 8 85 8 47 0 85 -3 85 -7z m613 -8 c172 -36 312
-193 413 -461 20 -53 94 -305 94 -319 0 -3 -20 -5 -43 -5 -55 0 -67 14 -97
108 -55 177 -186 301 -365 347 -32 8 -78 15 -101 15 -61 0 -74 8 -94 56 -22
50 -54 74 -108 81 -56 8 -124 -10 -305 -77 -224 -84 -314 -91 -376 -28 -17 18
-31 37 -31 43 0 6 31 19 70 28 98 23 222 73 279 111 41 28 64 35 172 50 68 10
189 28 269 41 80 13 147 24 150 24 3 0 36 -6 73 -14z"/>
</g>
</svg>
