<svg width="805" height="919" viewBox="0 0 805 919" fill="none" xmlns="http://www.w3.org/2000/svg">
<rect width="805" height="919" rx="50" fill="white"/>
<mask id="path-2-outside-1_1_2" maskUnits="userSpaceOnUse" x="61.6524" y="10.0048" width="670" height="903" fill="black">
<rect fill="white" x="61.6524" y="10.0048" width="670" height="903"/>
<path d="M256.051 20.6431C244.923 25.1765 238.201 36.9098 235.187 56.6431C234.491 61.4431 233.563 65.3098 233.216 65.1765C229.623 64.7765 227.189 69.4431 227.189 76.5098C227.189 83.7098 230.55 99.3098 232.289 100.377C234.375 101.71 235.766 118.91 234.723 131.176C234.028 139.043 233.332 141.31 230.666 144.376C227.421 148.11 227.304 148.11 211.888 148.11C174.448 148.11 141.181 152.51 123.794 159.576C96.2063 170.91 79.8625 191.176 72.9077 222.776C69.778 237.443 68.6189 279.576 70.7053 305.71C74.0668 349.043 78.7033 378.51 98.0609 482.11C102.234 504.11 106.87 528.643 108.377 536.776C111.043 551.31 111.043 552.643 111.623 656.11C112.318 781.043 113.593 803.31 121.823 837.043C132.255 879.843 151.497 900.243 162.277 879.843C165.754 873.31 167.493 858.51 167.261 836.776C167.029 798.91 161.813 765.176 142.919 680.11C136.196 649.71 127.619 610.376 123.91 592.776C117.071 560.776 117.071 560.776 117.071 528.11C117.071 479.576 122.055 296.643 123.91 274.11C125.301 258.243 126.692 254.776 131.676 254.776C133.994 254.776 137.703 256.376 140.833 258.643C148.136 263.976 156.134 265.976 166.102 264.91C200.876 261.176 257.326 214.91 279.465 171.976C282.827 165.31 285.957 159.71 286.304 159.443C287.811 158.376 319.224 171.443 330.931 178.11C364.314 197.043 384.599 221.31 394.104 253.443C397.234 264.243 398.509 288.91 396.538 301.976C389.816 346.11 365.009 388.91 320.731 432.643C309.603 443.576 282.711 466.776 266.947 478.91C255.008 488.11 255.008 488.11 240.287 484.51C227.652 481.443 222.436 480.91 205.744 480.91C188.357 480.776 185.112 481.176 177.694 483.843C166.102 487.976 159.959 494.643 159.959 502.776C159.959 510.643 163.9 516.243 173.404 521.576C183.025 527.043 193.458 527.443 205.513 522.91C214.09 519.576 232.405 509.176 245.039 500.376C249.328 497.31 253.385 494.776 254.08 494.776C257.442 494.776 280.625 506.643 292.1 514.11C303.924 521.976 313.08 529.043 359.33 565.976C382.513 584.376 404.536 599.843 423.082 610.643C440.817 620.91 466.434 633.443 470.027 633.443C471.07 633.443 472.114 634.243 472.461 635.176C473.041 636.91 457.625 679.31 443.947 713.443C434.21 737.976 415.316 781.176 405.116 802.11C378.224 857.976 370.805 875.576 369.182 888.51C366.98 905.043 376.601 908.91 391.438 897.443C412.65 881.31 451.481 830.376 482.778 778.11C487.183 770.776 492.862 761.176 495.529 756.776C506.888 737.71 530.882 691.976 542.474 667.176C550.007 651.176 550.007 651.176 581.884 650.376C611.905 649.71 631.959 647.843 654.91 643.576C660.358 642.51 664.878 641.843 664.994 641.976C665.11 641.976 667.08 657.443 669.399 676.11C682.729 783.976 692.35 834.776 707.418 877.443C714.025 896.51 717.966 904.11 721.096 904.11C722.371 904.11 723.299 903.843 723.299 903.443C723.299 903.043 720.748 896.91 717.618 889.71C714.489 882.643 710.2 870.11 707.882 862.11C699.188 830.91 683.656 744.91 675.774 684.776C670.558 644.643 670.326 641.176 671.601 640.776C672.297 640.51 677.049 639.043 682.149 637.443C703.013 631.043 704.057 623.043 687.597 597.443C684.12 591.976 677.049 582.776 672.064 577.176C661.632 565.443 663.255 574.243 656.068 492.776C646.448 384.376 637.29 338.376 613.876 280.91C608.776 268.376 608.776 268.376 617.121 267.843C623.381 267.576 626.279 266.643 629.061 264.376C634.045 260.376 641.695 242.51 644.014 229.576C644.941 224.243 646.448 218.11 647.375 215.976C649.461 211.443 647.955 195.843 645.173 192.243C644.13 190.91 643.318 188.776 643.318 187.31C643.318 182.643 636.479 163.71 633.117 158.91C631.263 156.243 627.206 152.376 624.076 150.376C619.208 147.176 617.354 146.776 610.746 147.043C601.01 147.576 594.983 151.843 589.998 161.843C583.275 175.176 580.725 191.443 581.884 212.776C582.347 220.11 582.579 226.243 582.464 226.51C582.347 226.643 580.841 226.243 579.334 225.576C570.176 221.576 563.338 243.71 563.338 277.31C563.338 322.243 555.456 367.576 534.823 442.376C523.696 482.643 500.165 557.443 482.082 610.376C475.128 630.643 475.128 630.643 465.043 626.51C444.411 618.243 417.055 603.043 395.495 587.843C383.904 579.843 355.041 557.043 334.872 540.11C302.185 512.776 285.377 501.043 267.526 493.443C263.817 491.843 260.804 490.243 260.804 489.71C260.804 489.176 263.238 487.043 266.368 484.776C284.566 471.71 320.963 439.443 339.045 420.376C373.24 384.11 394.567 345.176 401.639 305.976C404.304 291.176 404.073 269.043 401.174 255.443C391.438 211.71 356.664 177.31 303.691 159.31C295.693 156.643 288.971 154.243 288.739 153.976C288.507 153.71 290.014 148.376 291.984 142.11C296.389 127.976 301.721 106.777 301.489 104.11C300.91 97.7098 301.721 81.8431 302.648 79.8431C303.459 78.2431 303.228 75.4431 302.068 71.0431C301.142 67.5765 299.286 60.5098 298.012 55.4431C295.346 44.7765 287.928 31.0431 282.364 26.1098C274.597 19.3098 264.397 17.1765 256.051 20.6431ZM272.858 24.2431C283.059 27.4431 294.187 47.1765 297.317 67.7098C301.025 91.1765 298.128 113.31 288.623 134.776C285.377 142.11 275.872 148.51 269.961 147.443C266.831 146.776 265.556 147.176 265.092 148.643C264.512 150.243 266.251 151.31 272.627 153.71C277.148 155.31 280.973 157.443 281.32 158.243C281.552 159.043 279.929 163.31 277.727 167.576C254.197 213.843 196.124 260.11 161.581 260.11C152.308 260.11 147.788 258.643 140.369 253.176C131.792 246.91 126.228 248.643 121.591 258.776C117.534 267.71 116.955 276.643 115.912 336.776C115.332 369.71 114.289 417.176 113.593 442.11C113.014 467.043 112.434 496.643 112.434 507.976C112.434 519.31 112.086 528.11 111.623 527.576C109.884 525.576 86.8173 399.043 81.833 364.11C75.4578 319.443 72.7918 273.176 75.11 246.776C78.8192 205.976 89.5992 185.043 113.593 171.71C132.603 161.176 151.497 157.176 193.11 154.776C221.277 153.31 226.493 152.51 231.014 149.843C235.071 147.443 238.664 138.643 238.78 131.043C238.78 124.643 239.359 124.243 242.257 128.376C245.851 133.576 245.967 130.243 242.373 121.31C238.201 111.043 236.925 96.2431 238.896 81.3098C239.707 75.8431 240.403 66.6431 240.518 60.7765C240.75 48.9098 243.417 39.4431 248.516 31.7098C253.965 23.4431 262.31 20.9098 272.858 24.2431ZM234.143 76.6431C234.143 78.5098 233.68 80.3765 232.984 80.7765C232.289 81.3098 231.825 79.8431 231.825 77.5765C231.825 75.3098 232.405 73.4431 232.984 73.4431C233.68 73.4431 234.143 74.9098 234.143 76.6431ZM286.304 147.976C284.334 152.376 283.523 153.31 281.899 152.376C280.856 151.71 279.117 150.91 278.191 150.51C277.031 150.11 277.959 149.043 280.741 147.576C283.059 146.243 285.609 144.376 286.42 143.31C288.854 139.843 288.854 142.376 286.304 147.976ZM621.179 152.776C629.524 157.71 639.146 177.31 636.364 183.576C635.32 185.843 635.32 187.176 636.711 190.243C637.638 192.376 638.798 197.443 639.146 201.443C639.609 205.443 640.537 211.576 641.232 214.91C643.666 226.91 636.016 252.776 627.438 261.576C622.338 266.643 615.035 266.91 605.878 262.11C599.734 258.91 599.155 258.11 594.171 246.91C585.709 227.976 583.507 209.443 586.984 186.643C589.65 169.843 595.678 157.176 603.096 152.91C607.732 150.243 616.89 150.243 621.179 152.776ZM582 232.243C583.855 233.71 585.361 235.71 585.361 236.51C585.361 240.376 592.432 254.643 596.141 258.243C600.662 262.643 606.806 275.843 615.499 300.243C628.481 336.51 636.247 372.776 643.202 428.776C646.911 458.643 657.112 560.11 656.416 560.11C656.3 560.11 651.78 556.776 646.564 552.51C625.004 535.71 609.471 530.11 599.503 535.976C590.693 541.176 585.361 551.31 567.627 596.776C554.528 630.376 549.544 642.376 547.921 643.843C546.182 645.31 530.418 643.71 512.336 640.11C498.658 637.443 481.387 632.91 480.459 631.843C480.112 631.576 482.778 622.91 486.371 612.643C526.361 498.376 554.412 397.843 563.801 335.976C567.279 313.043 568.785 296.643 570.293 265.443C571.336 242.376 572.379 234.91 575.045 231.31C576.784 228.776 578.059 228.91 582 232.243ZM229.738 487.976C250.719 492.11 250.372 491.576 235.998 501.31C215.25 515.31 196.819 522.643 187.778 520.776C181.982 519.576 170.739 512.376 167.377 507.843C161.35 499.576 165.986 491.71 179.316 487.443C188.009 484.643 214.206 485.043 229.738 487.976ZM618.977 540.51C627.322 543.976 639.029 551.71 649.926 561.176C655.373 565.843 657.344 568.51 657.691 571.443C658.039 573.576 659.662 589.176 661.401 605.843C663.835 629.443 664.299 636.51 663.14 637.31C661.284 638.643 635.204 642.376 616.195 644.11C598.808 645.71 552.558 645.843 553.137 644.376C553.369 643.843 559.165 630.51 566.12 614.776C573.075 599.043 582.116 577.71 586.172 567.443C590.23 557.176 594.983 546.776 596.605 544.376C601.705 536.643 607.153 535.71 618.977 540.51ZM675.078 587.576C685.511 601.176 691.422 611.176 694.089 619.443C695.943 625.31 695.943 625.576 693.624 628.11C690.611 631.71 671.369 637.31 670.094 635.043C669.283 633.443 664.183 585.176 664.183 579.043C664.183 577.443 664.646 576.11 665.226 576.11C665.805 576.11 670.326 581.31 675.078 587.576ZM129.358 636.91C158.684 767.843 162.741 791.843 162.741 837.443C162.741 872.11 160.307 883.043 152.424 883.043C141.876 883.043 130.517 859.043 125.301 826.11C122.403 807.31 119.737 779.843 118.23 752.776C116.839 727.976 115.216 580.376 116.375 581.576C116.839 582.11 122.635 606.91 129.358 636.91ZM491.239 640.643C505.729 644.91 520.797 647.843 533.548 648.91C539.112 649.443 543.98 650.376 544.328 651.043C545.371 652.776 524.507 696.376 507.931 727.443C460.87 815.043 402.218 893.043 379.383 898.243C374.051 899.443 372.892 895.443 374.978 883.71C377.297 870.643 383.556 855.31 400.827 819.71C428.994 761.576 449.395 713.843 472.346 652.376C475.475 644.243 478.489 637.443 479.068 637.443C479.533 637.443 485.096 638.91 491.239 640.643Z"/>
</mask>
<path d="M256.051 20.6431C244.923 25.1765 238.201 36.9098 235.187 56.6431C234.491 61.4431 233.563 65.3098 233.216 65.1765C229.623 64.7765 227.189 69.4431 227.189 76.5098C227.189 83.7098 230.55 99.3098 232.289 100.377C234.375 101.71 235.766 118.91 234.723 131.176C234.028 139.043 233.332 141.31 230.666 144.376C227.421 148.11 227.304 148.11 211.888 148.11C174.448 148.11 141.181 152.51 123.794 159.576C96.2063 170.91 79.8625 191.176 72.9077 222.776C69.778 237.443 68.6189 279.576 70.7053 305.71C74.0668 349.043 78.7033 378.51 98.0609 482.11C102.234 504.11 106.87 528.643 108.377 536.776C111.043 551.31 111.043 552.643 111.623 656.11C112.318 781.043 113.593 803.31 121.823 837.043C132.255 879.843 151.497 900.243 162.277 879.843C165.754 873.31 167.493 858.51 167.261 836.776C167.029 798.91 161.813 765.176 142.919 680.11C136.196 649.71 127.619 610.376 123.91 592.776C117.071 560.776 117.071 560.776 117.071 528.11C117.071 479.576 122.055 296.643 123.91 274.11C125.301 258.243 126.692 254.776 131.676 254.776C133.994 254.776 137.703 256.376 140.833 258.643C148.136 263.976 156.134 265.976 166.102 264.91C200.876 261.176 257.326 214.91 279.465 171.976C282.827 165.31 285.957 159.71 286.304 159.443C287.811 158.376 319.224 171.443 330.931 178.11C364.314 197.043 384.599 221.31 394.104 253.443C397.234 264.243 398.509 288.91 396.538 301.976C389.816 346.11 365.009 388.91 320.731 432.643C309.603 443.576 282.711 466.776 266.947 478.91C255.008 488.11 255.008 488.11 240.287 484.51C227.652 481.443 222.436 480.91 205.744 480.91C188.357 480.776 185.112 481.176 177.694 483.843C166.102 487.976 159.959 494.643 159.959 502.776C159.959 510.643 163.9 516.243 173.404 521.576C183.025 527.043 193.458 527.443 205.513 522.91C214.09 519.576 232.405 509.176 245.039 500.376C249.328 497.31 253.385 494.776 254.08 494.776C257.442 494.776 280.625 506.643 292.1 514.11C303.924 521.976 313.08 529.043 359.33 565.976C382.513 584.376 404.536 599.843 423.082 610.643C440.817 620.91 466.434 633.443 470.027 633.443C471.07 633.443 472.114 634.243 472.461 635.176C473.041 636.91 457.625 679.31 443.947 713.443C434.21 737.976 415.316 781.176 405.116 802.11C378.224 857.976 370.805 875.576 369.182 888.51C366.98 905.043 376.601 908.91 391.438 897.443C412.65 881.31 451.481 830.376 482.778 778.11C487.183 770.776 492.862 761.176 495.529 756.776C506.888 737.71 530.882 691.976 542.474 667.176C550.007 651.176 550.007 651.176 581.884 650.376C611.905 649.71 631.959 647.843 654.91 643.576C660.358 642.51 664.878 641.843 664.994 641.976C665.11 641.976 667.08 657.443 669.399 676.11C682.729 783.976 692.35 834.776 707.418 877.443C714.025 896.51 717.966 904.11 721.096 904.11C722.371 904.11 723.299 903.843 723.299 903.443C723.299 903.043 720.748 896.91 717.618 889.71C714.489 882.643 710.2 870.11 707.882 862.11C699.188 830.91 683.656 744.91 675.774 684.776C670.558 644.643 670.326 641.176 671.601 640.776C672.297 640.51 677.049 639.043 682.149 637.443C703.013 631.043 704.057 623.043 687.597 597.443C684.12 591.976 677.049 582.776 672.064 577.176C661.632 565.443 663.255 574.243 656.068 492.776C646.448 384.376 637.29 338.376 613.876 280.91C608.776 268.376 608.776 268.376 617.121 267.843C623.381 267.576 626.279 266.643 629.061 264.376C634.045 260.376 641.695 242.51 644.014 229.576C644.941 224.243 646.448 218.11 647.375 215.976C649.461 211.443 647.955 195.843 645.173 192.243C644.13 190.91 643.318 188.776 643.318 187.31C643.318 182.643 636.479 163.71 633.117 158.91C631.263 156.243 627.206 152.376 624.076 150.376C619.208 147.176 617.354 146.776 610.746 147.043C601.01 147.576 594.983 151.843 589.998 161.843C583.275 175.176 580.725 191.443 581.884 212.776C582.347 220.11 582.579 226.243 582.464 226.51C582.347 226.643 580.841 226.243 579.334 225.576C570.176 221.576 563.338 243.71 563.338 277.31C563.338 322.243 555.456 367.576 534.823 442.376C523.696 482.643 500.165 557.443 482.082 610.376C475.128 630.643 475.128 630.643 465.043 626.51C444.411 618.243 417.055 603.043 395.495 587.843C383.904 579.843 355.041 557.043 334.872 540.11C302.185 512.776 285.377 501.043 267.526 493.443C263.817 491.843 260.804 490.243 260.804 489.71C260.804 489.176 263.238 487.043 266.368 484.776C284.566 471.71 320.963 439.443 339.045 420.376C373.24 384.11 394.567 345.176 401.639 305.976C404.304 291.176 404.073 269.043 401.174 255.443C391.438 211.71 356.664 177.31 303.691 159.31C295.693 156.643 288.971 154.243 288.739 153.976C288.507 153.71 290.014 148.376 291.984 142.11C296.389 127.976 301.721 106.777 301.489 104.11C300.91 97.7098 301.721 81.8431 302.648 79.8431C303.459 78.2431 303.228 75.4431 302.068 71.0431C301.142 67.5765 299.286 60.5098 298.012 55.4431C295.346 44.7765 287.928 31.0431 282.364 26.1098C274.597 19.3098 264.397 17.1765 256.051 20.6431ZM272.858 24.2431C283.059 27.4431 294.187 47.1765 297.317 67.7098C301.025 91.1765 298.128 113.31 288.623 134.776C285.377 142.11 275.872 148.51 269.961 147.443C266.831 146.776 265.556 147.176 265.092 148.643C264.512 150.243 266.251 151.31 272.627 153.71C277.148 155.31 280.973 157.443 281.32 158.243C281.552 159.043 279.929 163.31 277.727 167.576C254.197 213.843 196.124 260.11 161.581 260.11C152.308 260.11 147.788 258.643 140.369 253.176C131.792 246.91 126.228 248.643 121.591 258.776C117.534 267.71 116.955 276.643 115.912 336.776C115.332 369.71 114.289 417.176 113.593 442.11C113.014 467.043 112.434 496.643 112.434 507.976C112.434 519.31 112.086 528.11 111.623 527.576C109.884 525.576 86.8173 399.043 81.833 364.11C75.4578 319.443 72.7918 273.176 75.11 246.776C78.8192 205.976 89.5992 185.043 113.593 171.71C132.603 161.176 151.497 157.176 193.11 154.776C221.277 153.31 226.493 152.51 231.014 149.843C235.071 147.443 238.664 138.643 238.78 131.043C238.78 124.643 239.359 124.243 242.257 128.376C245.851 133.576 245.967 130.243 242.373 121.31C238.201 111.043 236.925 96.2431 238.896 81.3098C239.707 75.8431 240.403 66.6431 240.518 60.7765C240.75 48.9098 243.417 39.4431 248.516 31.7098C253.965 23.4431 262.31 20.9098 272.858 24.2431ZM234.143 76.6431C234.143 78.5098 233.68 80.3765 232.984 80.7765C232.289 81.3098 231.825 79.8431 231.825 77.5765C231.825 75.3098 232.405 73.4431 232.984 73.4431C233.68 73.4431 234.143 74.9098 234.143 76.6431ZM286.304 147.976C284.334 152.376 283.523 153.31 281.899 152.376C280.856 151.71 279.117 150.91 278.191 150.51C277.031 150.11 277.959 149.043 280.741 147.576C283.059 146.243 285.609 144.376 286.42 143.31C288.854 139.843 288.854 142.376 286.304 147.976ZM621.179 152.776C629.524 157.71 639.146 177.31 636.364 183.576C635.32 185.843 635.32 187.176 636.711 190.243C637.638 192.376 638.798 197.443 639.146 201.443C639.609 205.443 640.537 211.576 641.232 214.91C643.666 226.91 636.016 252.776 627.438 261.576C622.338 266.643 615.035 266.91 605.878 262.11C599.734 258.91 599.155 258.11 594.171 246.91C585.709 227.976 583.507 209.443 586.984 186.643C589.65 169.843 595.678 157.176 603.096 152.91C607.732 150.243 616.89 150.243 621.179 152.776ZM582 232.243C583.855 233.71 585.361 235.71 585.361 236.51C585.361 240.376 592.432 254.643 596.141 258.243C600.662 262.643 606.806 275.843 615.499 300.243C628.481 336.51 636.247 372.776 643.202 428.776C646.911 458.643 657.112 560.11 656.416 560.11C656.3 560.11 651.78 556.776 646.564 552.51C625.004 535.71 609.471 530.11 599.503 535.976C590.693 541.176 585.361 551.31 567.627 596.776C554.528 630.376 549.544 642.376 547.921 643.843C546.182 645.31 530.418 643.71 512.336 640.11C498.658 637.443 481.387 632.91 480.459 631.843C480.112 631.576 482.778 622.91 486.371 612.643C526.361 498.376 554.412 397.843 563.801 335.976C567.279 313.043 568.785 296.643 570.293 265.443C571.336 242.376 572.379 234.91 575.045 231.31C576.784 228.776 578.059 228.91 582 232.243ZM229.738 487.976C250.719 492.11 250.372 491.576 235.998 501.31C215.25 515.31 196.819 522.643 187.778 520.776C181.982 519.576 170.739 512.376 167.377 507.843C161.35 499.576 165.986 491.71 179.316 487.443C188.009 484.643 214.206 485.043 229.738 487.976ZM618.977 540.51C627.322 543.976 639.029 551.71 649.926 561.176C655.373 565.843 657.344 568.51 657.691 571.443C658.039 573.576 659.662 589.176 661.401 605.843C663.835 629.443 664.299 636.51 663.14 637.31C661.284 638.643 635.204 642.376 616.195 644.11C598.808 645.71 552.558 645.843 553.137 644.376C553.369 643.843 559.165 630.51 566.12 614.776C573.075 599.043 582.116 577.71 586.172 567.443C590.23 557.176 594.983 546.776 596.605 544.376C601.705 536.643 607.153 535.71 618.977 540.51ZM675.078 587.576C685.511 601.176 691.422 611.176 694.089 619.443C695.943 625.31 695.943 625.576 693.624 628.11C690.611 631.71 671.369 637.31 670.094 635.043C669.283 633.443 664.183 585.176 664.183 579.043C664.183 577.443 664.646 576.11 665.226 576.11C665.805 576.11 670.326 581.31 675.078 587.576ZM129.358 636.91C158.684 767.843 162.741 791.843 162.741 837.443C162.741 872.11 160.307 883.043 152.424 883.043C141.876 883.043 130.517 859.043 125.301 826.11C122.403 807.31 119.737 779.843 118.23 752.776C116.839 727.976 115.216 580.376 116.375 581.576C116.839 582.11 122.635 606.91 129.358 636.91ZM491.239 640.643C505.729 644.91 520.797 647.843 533.548 648.91C539.112 649.443 543.98 650.376 544.328 651.043C545.371 652.776 524.507 696.376 507.931 727.443C460.87 815.043 402.218 893.043 379.383 898.243C374.051 899.443 372.892 895.443 374.978 883.71C377.297 870.643 383.556 855.31 400.827 819.71C428.994 761.576 449.395 713.843 472.346 652.376C475.475 644.243 478.489 637.443 479.068 637.443C479.533 637.443 485.096 638.91 491.239 640.643Z" fill="black"/>
<path d="M256.051 20.6431C244.923 25.1765 238.201 36.9098 235.187 56.6431C234.491 61.4431 233.563 65.3098 233.216 65.1765C229.623 64.7765 227.189 69.4431 227.189 76.5098C227.189 83.7098 230.55 99.3098 232.289 100.377C234.375 101.71 235.766 118.91 234.723 131.176C234.028 139.043 233.332 141.31 230.666 144.376C227.421 148.11 227.304 148.11 211.888 148.11C174.448 148.11 141.181 152.51 123.794 159.576C96.2063 170.91 79.8625 191.176 72.9077 222.776C69.778 237.443 68.6189 279.576 70.7053 305.71C74.0668 349.043 78.7033 378.51 98.0609 482.11C102.234 504.11 106.87 528.643 108.377 536.776C111.043 551.31 111.043 552.643 111.623 656.11C112.318 781.043 113.593 803.31 121.823 837.043C132.255 879.843 151.497 900.243 162.277 879.843C165.754 873.31 167.493 858.51 167.261 836.776C167.029 798.91 161.813 765.176 142.919 680.11C136.196 649.71 127.619 610.376 123.91 592.776C117.071 560.776 117.071 560.776 117.071 528.11C117.071 479.576 122.055 296.643 123.91 274.11C125.301 258.243 126.692 254.776 131.676 254.776C133.994 254.776 137.703 256.376 140.833 258.643C148.136 263.976 156.134 265.976 166.102 264.91C200.876 261.176 257.326 214.91 279.465 171.976C282.827 165.31 285.957 159.71 286.304 159.443C287.811 158.376 319.224 171.443 330.931 178.11C364.314 197.043 384.599 221.31 394.104 253.443C397.234 264.243 398.509 288.91 396.538 301.976C389.816 346.11 365.009 388.91 320.731 432.643C309.603 443.576 282.711 466.776 266.947 478.91C255.008 488.11 255.008 488.11 240.287 484.51C227.652 481.443 222.436 480.91 205.744 480.91C188.357 480.776 185.112 481.176 177.694 483.843C166.102 487.976 159.959 494.643 159.959 502.776C159.959 510.643 163.9 516.243 173.404 521.576C183.025 527.043 193.458 527.443 205.513 522.91C214.09 519.576 232.405 509.176 245.039 500.376C249.328 497.31 253.385 494.776 254.08 494.776C257.442 494.776 280.625 506.643 292.1 514.11C303.924 521.976 313.08 529.043 359.33 565.976C382.513 584.376 404.536 599.843 423.082 610.643C440.817 620.91 466.434 633.443 470.027 633.443C471.07 633.443 472.114 634.243 472.461 635.176C473.041 636.91 457.625 679.31 443.947 713.443C434.21 737.976 415.316 781.176 405.116 802.11C378.224 857.976 370.805 875.576 369.182 888.51C366.98 905.043 376.601 908.91 391.438 897.443C412.65 881.31 451.481 830.376 482.778 778.11C487.183 770.776 492.862 761.176 495.529 756.776C506.888 737.71 530.882 691.976 542.474 667.176C550.007 651.176 550.007 651.176 581.884 650.376C611.905 649.71 631.959 647.843 654.91 643.576C660.358 642.51 664.878 641.843 664.994 641.976C665.11 641.976 667.08 657.443 669.399 676.11C682.729 783.976 692.35 834.776 707.418 877.443C714.025 896.51 717.966 904.11 721.096 904.11C722.371 904.11 723.299 903.843 723.299 903.443C723.299 903.043 720.748 896.91 717.618 889.71C714.489 882.643 710.2 870.11 707.882 862.11C699.188 830.91 683.656 744.91 675.774 684.776C670.558 644.643 670.326 641.176 671.601 640.776C672.297 640.51 677.049 639.043 682.149 637.443C703.013 631.043 704.057 623.043 687.597 597.443C684.12 591.976 677.049 582.776 672.064 577.176C661.632 565.443 663.255 574.243 656.068 492.776C646.448 384.376 637.29 338.376 613.876 280.91C608.776 268.376 608.776 268.376 617.121 267.843C623.381 267.576 626.279 266.643 629.061 264.376C634.045 260.376 641.695 242.51 644.014 229.576C644.941 224.243 646.448 218.11 647.375 215.976C649.461 211.443 647.955 195.843 645.173 192.243C644.13 190.91 643.318 188.776 643.318 187.31C643.318 182.643 636.479 163.71 633.117 158.91C631.263 156.243 627.206 152.376 624.076 150.376C619.208 147.176 617.354 146.776 610.746 147.043C601.01 147.576 594.983 151.843 589.998 161.843C583.275 175.176 580.725 191.443 581.884 212.776C582.347 220.11 582.579 226.243 582.464 226.51C582.347 226.643 580.841 226.243 579.334 225.576C570.176 221.576 563.338 243.71 563.338 277.31C563.338 322.243 555.456 367.576 534.823 442.376C523.696 482.643 500.165 557.443 482.082 610.376C475.128 630.643 475.128 630.643 465.043 626.51C444.411 618.243 417.055 603.043 395.495 587.843C383.904 579.843 355.041 557.043 334.872 540.11C302.185 512.776 285.377 501.043 267.526 493.443C263.817 491.843 260.804 490.243 260.804 489.71C260.804 489.176 263.238 487.043 266.368 484.776C284.566 471.71 320.963 439.443 339.045 420.376C373.24 384.11 394.567 345.176 401.639 305.976C404.304 291.176 404.073 269.043 401.174 255.443C391.438 211.71 356.664 177.31 303.691 159.31C295.693 156.643 288.971 154.243 288.739 153.976C288.507 153.71 290.014 148.376 291.984 142.11C296.389 127.976 301.721 106.777 301.489 104.11C300.91 97.7098 301.721 81.8431 302.648 79.8431C303.459 78.2431 303.228 75.4431 302.068 71.0431C301.142 67.5765 299.286 60.5098 298.012 55.4431C295.346 44.7765 287.928 31.0431 282.364 26.1098C274.597 19.3098 264.397 17.1765 256.051 20.6431ZM272.858 24.2431C283.059 27.4431 294.187 47.1765 297.317 67.7098C301.025 91.1765 298.128 113.31 288.623 134.776C285.377 142.11 275.872 148.51 269.961 147.443C266.831 146.776 265.556 147.176 265.092 148.643C264.512 150.243 266.251 151.31 272.627 153.71C277.148 155.31 280.973 157.443 281.32 158.243C281.552 159.043 279.929 163.31 277.727 167.576C254.197 213.843 196.124 260.11 161.581 260.11C152.308 260.11 147.788 258.643 140.369 253.176C131.792 246.91 126.228 248.643 121.591 258.776C117.534 267.71 116.955 276.643 115.912 336.776C115.332 369.71 114.289 417.176 113.593 442.11C113.014 467.043 112.434 496.643 112.434 507.976C112.434 519.31 112.086 528.11 111.623 527.576C109.884 525.576 86.8173 399.043 81.833 364.11C75.4578 319.443 72.7918 273.176 75.11 246.776C78.8192 205.976 89.5992 185.043 113.593 171.71C132.603 161.176 151.497 157.176 193.11 154.776C221.277 153.31 226.493 152.51 231.014 149.843C235.071 147.443 238.664 138.643 238.78 131.043C238.78 124.643 239.359 124.243 242.257 128.376C245.851 133.576 245.967 130.243 242.373 121.31C238.201 111.043 236.925 96.2431 238.896 81.3098C239.707 75.8431 240.403 66.6431 240.518 60.7765C240.75 48.9098 243.417 39.4431 248.516 31.7098C253.965 23.4431 262.31 20.9098 272.858 24.2431ZM234.143 76.6431C234.143 78.5098 233.68 80.3765 232.984 80.7765C232.289 81.3098 231.825 79.8431 231.825 77.5765C231.825 75.3098 232.405 73.4431 232.984 73.4431C233.68 73.4431 234.143 74.9098 234.143 76.6431ZM286.304 147.976C284.334 152.376 283.523 153.31 281.899 152.376C280.856 151.71 279.117 150.91 278.191 150.51C277.031 150.11 277.959 149.043 280.741 147.576C283.059 146.243 285.609 144.376 286.42 143.31C288.854 139.843 288.854 142.376 286.304 147.976ZM621.179 152.776C629.524 157.71 639.146 177.31 636.364 183.576C635.32 185.843 635.32 187.176 636.711 190.243C637.638 192.376 638.798 197.443 639.146 201.443C639.609 205.443 640.537 211.576 641.232 214.91C643.666 226.91 636.016 252.776 627.438 261.576C622.338 266.643 615.035 266.91 605.878 262.11C599.734 258.91 599.155 258.11 594.171 246.91C585.709 227.976 583.507 209.443 586.984 186.643C589.65 169.843 595.678 157.176 603.096 152.91C607.732 150.243 616.89 150.243 621.179 152.776ZM582 232.243C583.855 233.71 585.361 235.71 585.361 236.51C585.361 240.376 592.432 254.643 596.141 258.243C600.662 262.643 606.806 275.843 615.499 300.243C628.481 336.51 636.247 372.776 643.202 428.776C646.911 458.643 657.112 560.11 656.416 560.11C656.3 560.11 651.78 556.776 646.564 552.51C625.004 535.71 609.471 530.11 599.503 535.976C590.693 541.176 585.361 551.31 567.627 596.776C554.528 630.376 549.544 642.376 547.921 643.843C546.182 645.31 530.418 643.71 512.336 640.11C498.658 637.443 481.387 632.91 480.459 631.843C480.112 631.576 482.778 622.91 486.371 612.643C526.361 498.376 554.412 397.843 563.801 335.976C567.279 313.043 568.785 296.643 570.293 265.443C571.336 242.376 572.379 234.91 575.045 231.31C576.784 228.776 578.059 228.91 582 232.243ZM229.738 487.976C250.719 492.11 250.372 491.576 235.998 501.31C215.25 515.31 196.819 522.643 187.778 520.776C181.982 519.576 170.739 512.376 167.377 507.843C161.35 499.576 165.986 491.71 179.316 487.443C188.009 484.643 214.206 485.043 229.738 487.976ZM618.977 540.51C627.322 543.976 639.029 551.71 649.926 561.176C655.373 565.843 657.344 568.51 657.691 571.443C658.039 573.576 659.662 589.176 661.401 605.843C663.835 629.443 664.299 636.51 663.14 637.31C661.284 638.643 635.204 642.376 616.195 644.11C598.808 645.71 552.558 645.843 553.137 644.376C553.369 643.843 559.165 630.51 566.12 614.776C573.075 599.043 582.116 577.71 586.172 567.443C590.23 557.176 594.983 546.776 596.605 544.376C601.705 536.643 607.153 535.71 618.977 540.51ZM675.078 587.576C685.511 601.176 691.422 611.176 694.089 619.443C695.943 625.31 695.943 625.576 693.624 628.11C690.611 631.71 671.369 637.31 670.094 635.043C669.283 633.443 664.183 585.176 664.183 579.043C664.183 577.443 664.646 576.11 665.226 576.11C665.805 576.11 670.326 581.31 675.078 587.576ZM129.358 636.91C158.684 767.843 162.741 791.843 162.741 837.443C162.741 872.11 160.307 883.043 152.424 883.043C141.876 883.043 130.517 859.043 125.301 826.11C122.403 807.31 119.737 779.843 118.23 752.776C116.839 727.976 115.216 580.376 116.375 581.576C116.839 582.11 122.635 606.91 129.358 636.91ZM491.239 640.643C505.729 644.91 520.797 647.843 533.548 648.91C539.112 649.443 543.98 650.376 544.328 651.043C545.371 652.776 524.507 696.376 507.931 727.443C460.87 815.043 402.218 893.043 379.383 898.243C374.051 899.443 372.892 895.443 374.978 883.71C377.297 870.643 383.556 855.31 400.827 819.71C428.994 761.576 449.395 713.843 472.346 652.376C475.475 644.243 478.489 637.443 479.068 637.443C479.533 637.443 485.096 638.91 491.239 640.643Z" stroke="black" stroke-width="16" mask="url(#path-2-outside-1_1_2)"/>
<path d="M261.209 65.9117C262.343 65.7203 263.254 66.2464 263.606 66.4664C264.089 66.7691 264.537 67.1636 264.921 67.5446C265.704 68.3206 266.525 69.3456 267.258 70.3951C267.996 71.4523 268.704 72.6167 269.238 73.7057C269.695 74.6359 270.219 75.8887 270.255 77.0514C270.259 77.0682 270.265 77.0937 270.276 77.1276C270.319 77.2582 270.398 77.4492 270.52 77.6862C270.765 78.1645 271.117 78.6954 271.5 79.1364H271.499C272.261 79.9991 272.67 81.2104 272.929 82.1969C273.221 83.3123 273.442 84.6444 273.607 86.0739C273.937 88.9423 274.07 92.437 274.025 95.8756C273.981 99.3136 273.759 102.776 273.359 105.58C273.16 106.975 272.908 108.271 272.589 109.343C272.429 109.88 272.238 110.41 272.004 110.889C271.782 111.343 271.451 111.9 270.948 112.358L270.924 112.38L270.898 112.403C270.401 112.832 269.833 113.249 269.207 113.542C268.577 113.836 267.735 114.073 266.79 113.907C264.759 113.549 263.901 111.738 263.517 110.582C263.077 109.259 262.818 107.49 262.649 105.364C262.478 103.2 262.39 100.495 262.36 97.2106L262.312 94.2457C262.257 91.4623 262.182 89.2119 262.057 87.3844C261.887 84.909 261.637 83.4084 261.321 82.485C261.038 81.657 260.799 81.5606 260.726 81.524C260.473 81.3976 259.943 81.276 258.601 81.276C255.279 81.276 251.767 80.0312 249.397 77.8365C248.147 76.7148 247.089 75.5941 246.416 74.4791C245.756 73.3856 245.183 71.7995 245.91 70.151C246.584 68.6229 248.037 67.865 249.232 67.4479C250.509 67.0017 252.119 66.7281 253.962 66.5543L253.977 66.5524L253.992 66.5514C257.343 66.276 260.529 66.0214 261.209 65.9098V65.9117Z" fill="black" stroke="black" stroke-width="5"/>
<path d="M282.247 66.9431C284.162 66.9431 285.83 67.9447 286.909 69.113C287.771 70.0465 288.551 71.4179 288.607 72.9675C288.934 73.0142 289.353 73.0531 289.884 73.0779C291.33 73.0843 292.655 73.2271 293.676 73.6208C294.186 73.8177 294.903 74.1828 295.424 74.8933C296.053 75.7521 296.17 76.8111 295.823 77.7546C295.535 78.5396 294.993 79.0823 294.582 79.4187C294.138 79.7824 293.619 80.0897 293.084 80.3523C292.011 80.8791 290.617 81.3481 288.972 81.741L288.944 81.7478L288.918 81.7536C286.903 82.1883 285.106 82.3675 283.283 82.1599C281.464 81.9527 279.775 81.3772 277.946 80.5085C276.621 79.8915 275.448 79.2028 274.553 78.4011C273.663 77.6047 272.832 76.4987 272.688 75.0574C272.541 73.5716 273.179 72.3244 273.979 71.3972C274.762 70.4907 275.845 69.7086 277.061 69.0095C277.902 68.4937 278.818 68.0205 279.623 67.6687C280.036 67.488 280.452 67.3257 280.835 67.2029C281.138 67.1055 281.683 66.9431 282.247 66.9431Z" fill="black" stroke="black" stroke-width="5"/>
<path d="M600.045 193.528C603.867 192.741 606.778 192.297 609.027 192.618C610.243 192.791 611.338 193.192 612.309 193.904C613.137 194.511 613.769 195.266 614.291 196.069L614.509 196.417L614.543 196.473L614.574 196.531C615.386 198.049 617.462 200.958 619.049 202.918L619.307 203.242C620.577 204.904 621.597 207.177 622.395 209.568C623.263 212.168 623.937 215.12 624.375 218.039C624.813 220.954 625.023 223.903 624.934 226.497C624.848 228.978 624.478 231.479 623.503 233.278L623.504 233.279C623.501 233.285 623.496 233.29 623.493 233.296C623.49 233.302 623.488 233.308 623.485 233.313L623.484 233.312C623.116 233.996 622.566 234.666 621.761 235.097C620.914 235.551 620.011 235.623 619.202 235.457C617.736 235.156 616.598 234.103 615.84 233.16C614.241 231.17 612.999 228.018 612.999 224.776C612.999 221.07 612.392 216.461 611.483 212.484C611.029 210.501 610.512 208.732 609.984 207.349C609.528 206.153 609.138 205.459 608.901 205.132C608.596 205.427 608.249 205.681 607.864 205.887C606.826 206.442 605.671 206.58 604.612 206.523C602.514 206.409 600.138 205.498 597.858 204.113V204.112C596.646 203.41 595.582 202.613 594.837 201.692C594.073 200.747 593.446 199.4 593.809 197.855C594.155 196.377 595.249 195.425 596.26 194.841C597.3 194.242 598.602 193.822 600.045 193.527V193.528ZM610.131 203.08C610.142 203.049 610.142 203.043 610.134 203.072C610.133 203.074 610.132 203.077 610.131 203.08Z" fill="black" stroke="black" stroke-width="5"/>
<path d="M628.369 196.528C629.507 196.36 630.826 196.307 632.061 196.344C633.286 196.38 634.563 196.507 635.598 196.752C636.094 196.869 636.694 197.049 637.229 197.352C637.613 197.569 638.864 198.362 638.864 199.976C638.864 200.988 638.393 201.758 638.025 202.216C637.64 202.696 637.168 203.084 636.732 203.39C635.852 204.006 634.753 204.531 633.676 204.935C632.587 205.343 631.397 205.672 630.287 205.842C629.291 205.994 627.936 206.09 626.775 205.645L626.658 205.6L626.546 205.543C625.339 204.935 624.033 203.915 623.612 202.285C623.157 200.524 623.958 199.004 624.936 197.981L624.937 197.982C625.511 197.369 626.234 197.072 626.675 196.92C627.214 196.735 627.803 196.612 628.369 196.528Z" fill="black" stroke="black" stroke-width="5"/>
<path d="M614.823 239.162C617.587 237.922 620.665 237.442 623.364 237.723C625.866 237.983 628.634 238.983 630.071 241.334L630.206 241.565L630.217 241.587L630.229 241.609C630.769 242.633 631.306 243.939 631.171 245.289C631.096 246.042 630.814 246.781 630.278 247.41C629.762 248.015 629.121 248.389 628.515 248.624C627.371 249.068 625.976 249.157 624.561 249.119C623.085 249.08 621.292 248.89 619.195 248.584V248.583C617.447 248.34 615.948 248.033 614.752 247.647C613.678 247.301 612.384 246.751 611.574 245.734C611.101 245.141 610.751 244.329 610.819 243.374C610.883 242.471 611.3 241.765 611.707 241.279C612.466 240.373 613.638 239.701 614.814 239.167L614.823 239.162Z" fill="black" stroke="black" stroke-width="5"/>
</svg>
