<?xml version="1.0" encoding="UTF-8"?>
<svg version="1.1" xmlns="http://www.w3.org/2000/svg"
 width="800" height="832" viewBox="0 0 222 231"
 preserveAspectRatio="xMidYMid meet">
<title>One Line Portrait 2</title>
<desc>Minimalist one-line portrait art with transparent background</desc>
<g transform="translate(0,231) scale(0.1,-0.1)"
fill="#1a1a1a" stroke="none">
<path d="M505 2040 c-111 -44 -171 -130 -182 -259 -3 -41 -12 -76 -19 -82 -22
-18 -17 -110 11 -197 20 -63 38 -95 89 -158 35 -43 75 -90 89 -102 43 -40 122
-27 171 27 23 25 49 27 66 6 18 -22 55 -15 55 9 0 12 -13 25 -33 35 -25 12
-31 21 -26 36 3 11 12 47 19 80 21 93 23 95 65 95 37 0 38 -1 74 -80 20 -44
41 -103 47 -132 14 -64 6 -176 -17 -243 -25 -71 -101 -144 -181 -173 -127 -46
-191 -125 -201 -249 -2 -34 1 -90 8 -123 7 -33 10 -64 6 -67 -4 -4 -29 16 -57
45 -136 142 -306 232 -441 232 -67 0 -67 -26 -1 -35 184 -25 271 -74 462 -259
72 -70 90 -95 132 -181 27 -55 56 -132 65 -170 9 -39 18 -76 20 -83 2 -6 10
-12 19 -12 23 0 18 45 -16 140 -42 117 -43 120 -31 120 5 0 40 -18 77 -39 67
-40 169 -78 330 -126 50 -15 122 -42 162 -62 39 -19 82 -33 95 -31 45 6 -85
74 -226 118 -325 102 -462 176 -516 280 -51 99 -68 259 -35 337 25 59 53 82
160 133 141 66 191 125 225 269 23 97 0 223 -64 349 l-27 53 21 26 c11 14 20
34 20 44 0 31 110 26 209 -10 255 -93 409 -315 473 -681 18 -103 17 -463 -1
-555 -18 -91 -66 -237 -100 -300 -14 -27 -27 -53 -29 -57 -2 -5 5 -8 16 -8 14
0 29 22 60 88 107 224 138 550 81 863 -26 146 -52 227 -112 344 -69 135 -176
244 -299 304 -95 47 -181 71 -250 71 -37 0 -50 4 -55 18 -8 24 -44 62 -58 62
-8 0 -14 27 -17 78 -5 92 -31 148 -91 196 -35 28 -47 31 -115 33 -58 2 -90 -2
-127 -17z m177 -20 c51 -14 104 -78 117 -142 15 -67 3 -246 -18 -275 -24 -33
-44 -28 -103 26 -58 53 -93 65 -176 63 -47 -2 -58 1 -88 28 -19 16 -40 30 -46
30 -21 0 -2 118 26 161 58 87 188 136 288 109z m-270 -337 c15 -15 28 -33 28
-40 0 -31 95 -43 143 -18 27 14 30 13 79 -25 27 -22 56 -44 64 -48 11 -6 9
-22 -10 -92 -34 -120 -40 -132 -80 -168 -43 -37 -79 -49 -110 -34 -13 6 -56
53 -95 106 -61 81 -74 106 -91 172 -22 84 -26 134 -11 134 18 0 72 -130 78
-185 6 -59 14 -70 55 -80 21 -5 29 -3 34 9 9 23 -15 48 -37 41 -17 -6 -19 -1
-19 44 0 39 -9 67 -40 126 -22 42 -40 78 -40 80 0 14 27 2 52 -22z m458 12
c15 -18 6 -45 -14 -45 -7 0 -16 10 -19 22 -10 37 10 51 33 23z m-330 -45 c0
-5 -11 -10 -25 -10 -14 0 -25 5 -25 10 0 6 11 10 25 10 14 0 25 -4 25 -10z
m340 -40 c0 -5 -4 -10 -10 -10 -5 0 -10 5 -10 10 0 6 5 10 10 10 6 0 10 -4 10
-10z m-60 -40 c0 -5 -4 -10 -10 -10 -5 0 -10 5 -10 10 0 6 5 10 10 10 6 0 10
-4 10 -10z"/>
<path d="M2046 70 c-20 -34 -36 -63 -36 -66 0 -2 8 -4 18 -4 24 0 81 105 66
120 -8 8 -21 -6 -48 -50z"/>
<path d="M23 3 c15 -2 39 -2 55 0 15 2 2 4 -28 4 -30 0 -43 -2 -27 -4z"/>
</g>
</svg>
