<?xml version="1.0" standalone="no"?>
<!DOCTYPE svg PUBLIC "-//W3C//DTD SVG 20010904//EN"
 "http://www.w3.org/TR/2001/REC-SVG-20010904/DTD/svg10.dtd">
<svg version="1.0" xmlns="http://www.w3.org/2000/svg"
 width="179.884614pt" height="350.893455pt" viewBox="0 0 179.884614 350.893455"
 preserveAspectRatio="xMidYMid meet">
<metadata>
Created by potrace 1.16, written by Peter Selinger 2001-2019
</metadata>
<g transform="translate(-18.173152,350.705275) scale(0.100000,-0.100000)"
fill="#000000" stroke="none">
<path d="M910 3499 c-68 -28 -114 -102 -131 -210 -7 -45 -17 -78 -27 -85 -15
-11 -15 -19 -4 -71 6 -32 20 -69 30 -83 50 -69 54 -234 9 -333 -36 -79 -91
-134 -228 -228 -247 -169 -338 -321 -370 -618 -46 -420 128 -1070 391 -1462
61 -89 61 -89 -54 -246 -63 -87 -113 -159 -110 -162 5 -5 -7 -21 119 149 59
80 109 147 111 149 2 2 37 -30 77 -71 135 -137 259 -198 401 -198 119 0 241
55 326 146 27 30 23 27 -20 -11 -127 -111 -283 -150 -427 -107 -105 32 -220
112 -303 212 -40 48 -40 48 47 162 111 142 286 318 380 381 141 94 274 137
420 137 136 0 249 -40 366 -128 37 -28 67 -47 67 -42 0 16 -121 101 -186 131
-180 82 -367 74 -569 -26 -157 -78 -295 -203 -482 -438 -48 -59 -90 -107 -94
-107 -16 0 -115 165 -184 305 -160 327 -251 678 -262 1015 -7 195 6 308 47
432 56 167 138 265 331 396 119 81 176 137 212 209 29 56 49 153 41 192 -6 26
-6 26 20 -4 33 -39 33 -26 1 23 -35 54 -56 166 -57 307 -1 139 14 188 74 241
91 80 214 40 274 -91 26 -55 30 -75 14 -75 -6 0 -3 -15 6 -32 22 -43 31 -209
15 -274 -7 -26 -21 -65 -32 -88 -22 -46 -23 -49 -9 -41 16 10 12 -7 -11 -45
-39 -66 -77 -76 -139 -39 -35 21 -35 21 -10 -6 51 -57 140 -104 284 -150 284
-92 436 -192 531 -350 48 -80 66 -145 66 -237 0 -88 -21 -158 -72 -243 -37
-63 -138 -177 -199 -225 -38 -30 -38 -30 -152 29 -174 92 -250 115 -383 115
-99 1 -116 -2 -167 -26 -125 -58 -188 -138 -188 -238 0 -162 190 -241 420
-174 85 24 246 108 344 179 90 64 90 64 200 -13 254 -175 310 -211 315 -206 3
4 1 9 -6 11 -6 2 -60 39 -120 82 -59 42 -144 102 -188 132 -43 29 -84 57 -89
61 -5 3 25 39 68 79 169 157 249 323 233 479 -21 193 -153 357 -383 473 -28
14 -125 51 -215 82 -90 31 -179 66 -198 77 -34 21 -34 21 0 37 61 29 118 171
126 311 2 41 8 88 13 104 13 39 13 42 -7 62 -10 10 -24 45 -30 78 -27 132 -95
206 -195 213 -29 1 -64 -2 -78 -8z m297 -331 c-3 -7 -5 -2 -5 12 0 14 2 19 5
13 2 -7 2 -19 0 -25z m-424 -47 c3 -26 2 -40 -4 -34 -5 5 -11 31 -15 58 -3 33
-2 45 4 35 5 -8 12 -35 15 -59z m462 -1463 c89 -29 256 -111 276 -134 25 -30
-290 -215 -426 -250 -168 -43 -328 1 -371 103 -54 125 74 282 254 313 72 12
167 1 267 -32z"/>
<path d="M851 3211 c-1 -22 31 -40 69 -41 34 0 36 -1 48 -53 6 -29 12 -69 12
-90 0 -31 4 -37 20 -37 20 0 20 4 14 78 -6 61 -13 84 -33 110 -24 31 -29 33
-73 27 -33 -4 -48 -2 -51 7 -4 10 -6 10 -6 -1z m146 -188 c-3 -10 -5 -2 -5 17
0 19 2 27 5 18 2 -10 2 -26 0 -35z"/>
<path d="M1040 3210 c-26 -16 6 -35 57 -33 54 2 86 23 35 23 -18 0 -32 5 -32
10 0 13 -40 13 -60 0z"/>
<path d="M1903 463 c15 -2 39 -2 55 0 15 2 2 4 -28 4 -30 0 -43 -2 -27 -4z"/>
<path d="M1838 453 c6 -2 18 -2 25 0 6 3 1 5 -13 5 -14 0 -19 -2 -12 -5z"/>
<path d="M1798 443 c7 -3 16 -2 19 1 4 3 -2 6 -13 5 -11 0 -14 -3 -6 -6z"/>
<path d="M1770 435 c0 -3 2 -5 5 -5 3 0 5 2 5 5 0 3 -2 5 -5 5 -3 0 -5 -2 -5
-5z"/>
<path d="M1718 414 c-39 -21 -35 -28 5 -8 37 19 44 24 31 24 -5 -1 -21 -8 -36
-16z"/>
<path d="M1664 378 c-4 -7 -3 -8 4 -4 12 7 16 16 8 16 -3 0 -8 -5 -12 -12z"/>
<path d="M1634 358 c-4 -7 -3 -8 4 -4 12 7 16 16 8 16 -3 0 -8 -5 -12 -12z"/>
<path d="M1565 298 c-40 -43 -40 -43 3 -3 39 36 47 45 39 45 -2 0 -21 -19 -42
-42z"/>
</g>
</svg>
